<?xml version="1.0" encoding="UTF-8"?>
<svg width="97px" height="30px" viewBox="0 0 97 30" version="1.1" xmlns="http://www.w3.org/2000/svg" xmlns:xlink="http://www.w3.org/1999/xlink">
    <!-- Generator: sketchtool 55.2 (78181) - https://sketchapp.com -->
    <title>A35F6AFD-77E6-403A-9F09-CA32E038460A</title>
    <desc>Created with sketchtool.</desc>
    <defs>
        <polygon id="path-1" points="22.7416303 30.0294487 0.117612303 30.0294487 0.117612303 0.00362727537 22.7416303 0.00362727537"></polygon>
    </defs>
    <g id="Explorecion-de-menu" stroke="none" stroke-width="1" fill="none" fill-rule="evenodd">
        <g id="Mobile" transform="translate(-139.000000, -24.000000)">
            <g id="02-mol/nav/mob/main_nav">
                <g id="main-logotype" transform="translate(137.500000, 24.000000)">
                    <g id="desk/images/logotypes/san-cristobal/second-version">
                        <rect id="160x64" fill-opacity="0" fill="#DEDEDE" x="0" y="0" width="99.7530864" height="40"></rect>
                        <g id="Logo" transform="translate(1.870370, 0.000000)">
                            <g id="Group-3">
                                <g id="Group">
                                    <path d="M15.7834356,4.26617271 C15.7374869,1.90051033 13.8022031,-0.00119020829 11.4219431,0.00362727537 C9.04228761,0.00725643116 7.11244507,1.91619695 7.07616984,4.28185932 L0.117370468,4.29332262 L0.63550175,5.45232222 L11.4757513,30.0296297 L22.3335339,5.17780644 L22.7416303,4.25410608 L15.7834356,4.26617271 Z" id="Fill-1" fill="#FFFFFF"></path>
                                    <path d="M4.92023671,8.31033844 C6.54751844,9.08193342 7.74803164,8.37433615 7.74803164,8.37433615 C7.74803164,8.37433615 5.75987056,9.80100198 7.04924349,12.3180438 L5.90736564,12.9175695 L7.48024345,16.4253683 C7.48024345,16.4253683 8.67652523,16.3305792 8.93826853,15.7600336 C8.93826853,15.7600336 8.2237637,14.1969198 8.56409045,13.5424527 C8.56409045,13.5424527 8.81616196,13.6982207 9.31002866,13.8141411 C9.85950827,13.9421365 10.4676232,13.945759 11.1259107,13.5666028 C11.3531981,13.4361924 11.4559611,13.2508406 11.4656329,13.5243402 C11.4747002,13.7984436 12.014508,14.8006718 10.9264296,16.2031875 C9.83835119,17.6050995 8.52903015,18.7280781 8.82341581,19.4338642 L11.4988798,25.4713836 L15.9847853,15.3325772 C15.9847853,15.3325772 15.2092272,15.5843418 14.8519748,15.0560589 C14.5189019,14.564001 14.6337546,13.7905948 15.370021,13.3752135 C15.370021,13.3752135 15.1191585,12.3723815 15.5616437,12.4889056 C15.5616437,12.4889056 15.7345273,12.6344098 15.9140602,12.7298026 C16.0929887,12.8257992 16.705335,13.4253249 17.1786491,12.3566839 C17.5479913,11.521695 19.1547204,7.60153367 19.8764791,5.86212433 L18.7817513,5.86212433 L16.3329704,11.4595086 C16.3329704,11.4595086 16.5705342,10.7132712 16.6152663,10.2441559 C16.7597389,8.95635302 16.2380658,8.39848623 16.2380658,8.39848623 C16.2398792,8.37976992 16.2416927,8.36044985 16.2429017,8.34112979 C16.2447151,8.30671593 16.2465286,8.25660452 16.2459241,8.19562557 L16.2483421,8.19562557 C16.2489466,8.04468759 16.2350433,7.9076359 16.2090504,7.78567801 L16.2054234,7.78567801 C16.1975651,7.74220787 16.1878933,7.69692647 16.176408,7.65164508 C15.9128512,6.7719785 15.0188135,6.68201946 15.0188135,6.68201946 C14.7171739,6.6300968 14.6458444,6.45561249 14.257763,6.41938737 C13.6726187,6.3650497 13.0300479,6.67477444 13.0300479,6.67477444 C13.0300479,6.67477444 12.521069,6.97483915 12.4334182,6.38678477 C12.3681335,5.94725335 12.9587183,5.75284523 12.9587183,5.75284523 C12.9774574,5.73292142 13.4078529,5.60552976 13.2404097,5.21007224 C13.4157112,4.98668402 13.8406663,4.39259211 13.4580254,4.00619087 C13.0856608,3.63065716 12.9121727,3.1579194 12.4261644,3.01784895 C11.8766848,2.85966594 11.6759947,2.98585009 11.6759947,2.98585009 C10.9258251,2.34526929 10.4954297,2.98041633 10.4954297,2.98041633 C9.87643393,3.0498478 10.1345503,3.90959056 10.1345503,3.90959056 C9.54094308,4.30867059 9.99007768,4.85204734 9.97859241,4.96615645 C9.96771162,5.08207683 9.78334278,5.22456228 9.65337785,5.46606306 C9.52280844,5.70696008 9.81779859,5.98287472 9.81779859,5.98287472 C9.81779859,5.98287472 9.99189114,6.17366033 9.56149568,6.05773996 C9.13110021,5.94121583 8.71460797,5.5723234 7.69060528,6.22316799 C6.36254511,7.0672132 5.22610765,6.97242415 5.22610765,6.97242415 C5.22610765,6.97242415 4.36833916,6.27690191 3.81341916,6.08853131 C3.27058892,5.90317946 2.93026217,6.11992641 2.83656653,6.49364886 C2.78095363,6.71462207 2.88734352,7.082307 3.25064082,7.12396588 C3.25064082,7.12396588 3.14001951,7.19883112 3.10495921,7.39625801 C3.03786104,7.77239547 3.83397175,8.31033844 4.92023671,8.31033844" id="Fill-4" fill="#00467F"></path>
                                    <path d="M9.84496399,10.7857361 C9.84496399,10.7857361 9.22426126,10.7336527 9.21037394,10.3906208 C9.19407144,10.00688 10.6552588,11.0856645 11.1044833,10.145769 C11.5138573,9.28848859 11.390079,7.75053225 12.7021287,7.19318023 C12.7021287,7.19318023 11.7505455,7.28477514 11.9721388,5.81267135 C11.9721388,5.81267135 12.4431,5.69593274 12.4932151,5.40917483 C12.5445378,5.1212196 12.4376658,5.08949064 12.140598,5.14516598 C12.140598,5.14516598 11.8658706,4.99669841 11.7867733,4.41061073 C11.7867733,4.41061073 11.0809353,4.38846033 10.8001699,4.10828767 C10.8001699,4.10828767 10.2350165,4.21484907 10.5574438,4.97095605 C10.5574438,4.97095605 10.6836372,5.11463434 10.4046833,5.33613837 C10.1263331,5.55764239 10.3648327,5.55764239 10.4704971,5.75939065 C10.5767653,5.9599416 9.92285373,6.34428102 10.9179102,6.70287807 C10.9179102,6.70287807 10.6474094,6.77830918 10.2229406,6.75196816 C9.79847166,6.72442982 9.20493978,6.12696761 8.41517405,6.46042096 C7.51612117,6.83937245 6.6671834,7.47395155 5.11844557,7.34045047 C5.11844557,7.34045047 4.67586279,6.94413787 4.62393629,6.87050274 C4.57804777,6.80704483 4.41381514,6.78429577 4.35886966,6.78070381 C4.35886966,6.78070381 3.54072551,6.23712096 3.40849409,6.3430837 C3.40849409,6.3430837 3.40426751,6.54363464 3.59929376,6.60589523 C3.59929376,6.60589523 3.19776914,6.51789228 3.18207043,6.55500917 C3.18207043,6.55500917 3.10840727,6.73281105 3.45559021,6.7735199 C3.45559021,6.7735199 4.10346378,6.96209765 4.27977233,7.29375503 C4.28882928,7.3105175 4.29667863,7.32548399 4.30754697,7.34464109 C4.31358493,7.35601562 4.31660391,7.37158077 4.31660391,7.38954056 C4.31660391,7.44940651 4.28339511,7.52723225 4.23871417,7.50687782 C4.18014592,7.4805368 3.77680991,7.29076173 3.61076589,7.32009605 C3.50993189,7.34523975 3.48578003,7.47035959 3.71159989,7.57692099 C3.71159989,7.57692099 4.16323962,7.75532153 4.27011159,7.84811376 C4.27011159,7.84811376 4.59012369,8.06183521 4.92945729,7.91217033 L4.97353442,7.92055156 C4.97353442,7.92055156 5.19090114,7.967247 5.5350651,8.04207944 C6.07667049,8.16121269 6.61344552,8.24322905 7.48834654,7.93372207 C7.48834654,7.93372207 10.0369713,6.92019148 8.33064255,8.61978589 C8.33064255,8.61978589 6.12738939,10.7845388 8.30709449,12.4745546 C8.30709449,12.4745546 10.5556324,14.2537707 11.4015512,12.4697653 C11.4015512,12.4697653 11.9413452,11.0778819 9.84496399,10.7857361" id="Fill-6" fill="#FFFFFF"></path>
                                    <path d="M14.9964741,7.76191324 C14.795805,7.64440398 14.2677909,7.52324158 14.2677909,7.52324158 C14.2677909,7.52324158 14.1825509,7.49462534 14.1594651,7.529939 C13.7693739,8.14305728 12.5144523,8.23134144 12.5239234,8.52541902 C12.5345784,8.81888775 13.3668519,8.89743021 13.2472792,9.13062216 C13.1632231,9.29257793 12.9228938,9.25421999 12.7044664,9.17628638 C12.6636222,9.24752257 12.5890373,9.29683993 12.5020215,9.29683993 C12.4049427,9.29683993 12.3214785,9.23656316 12.284778,9.15254099 C12.2670197,9.21464433 12.2220319,9.25117571 12.1610617,9.29683993 C11.723615,9.61648948 11.7620913,10.4640174 11.7620913,10.4640174 C11.9716396,10.2819694 12.878498,10.4238329 12.878498,10.4238329 L13.2946347,9.58604666 C13.5154299,8.70320505 14.5708663,9.44600972 14.5400852,9.69016109 C14.5229188,9.81315005 14.3364564,9.77722753 14.1565054,9.71025334 C14.1269082,9.80949692 14.0363407,9.88195081 13.9303827,9.88195081 C13.8007469,9.88255967 13.694197,9.7735744 13.694197,9.63901716 C13.694197,9.62075147 13.6965648,9.60248578 13.6995245,9.58604666 C13.069104,9.8849951 13.5911987,11.3858258 13.5911987,11.3858258 L14.3015317,10.89387 C15.6961521,10.2740543 14.9964741,7.76191324 14.9964741,7.76191324" id="Fill-10" fill="#FFFFFF"></path>
                                </g>
                                <mask id="mask-2" fill="white">
                                    <use xlink:href="#path-1"></use>
                                </mask>
                                <g id="Clip-2"></g>
                            </g>
                            <path d="M10.8323994,4.9604549 C10.8262495,4.9641766 10.8219918,4.96789831 10.816788,4.97162001 C10.7713728,4.9967415 10.7373114,5.07489724 10.7373114,5.17166149 C10.7373114,5.28796468 10.785092,5.38286809 10.8442263,5.38193766 C10.8943723,5.38193766 10.9336375,5.3140166 10.9464105,5.22376532 C10.9587105,5.18840915 10.9904065,5.13444447 11.0590023,5.19027 C11.1441558,5.26005192 11.1616596,5.23493043 11.183421,5.10932298 C11.2037633,4.98371554 10.9766873,4.88322958 10.8323994,4.9604549" id="Fill-8" fill="#00467F"></path>
                            <g id="Group-2" transform="translate(23.711563, 4.933449)" fill="#FFFFFF">
                                <path d="M3.06724247,9.91410819 C1.92002658,9.91410819 1.15981606,9.78373795 0.245403398,9.4526582 L0.245403398,7.32246922 C1.0542146,7.6305068 1.89662626,7.84334378 2.76363826,7.84334378 C3.54784912,7.84334378 3.85205333,7.60685824 3.85205333,7.16905681 C3.85205333,6.52993948 2.961641,6.35227213 2.0370282,6.08001058 C1.04221443,5.78470684 0,5.20440771 0,3.54779618 C0,1.8675361 0.994813773,0.708150585 3.34864636,0.708150585 C4.25045885,0.708150585 4.89426776,0.837914445 5.6196778,1.05075143 L5.6196778,3.10999475 C4.84746711,2.93172103 4.12145706,2.81408464 3.48904831,2.81408464 C2.54103518,2.81408464 2.35383259,3.0748251 2.35383259,3.41742595 C2.35383259,3.97407653 3.10264296,4.10384039 3.93485448,4.3409323 C4.98786906,4.63562966 6.19388575,5.16863169 6.19388575,7.01443165 C6.19388575,8.78989231 5.01126938,9.91410819 3.06724247,9.91410819" id="Fill-12"></path>
                                <path d="M10.2803163,7.69664164 L10.2803163,6.68908902 C10.1061405,6.65323521 9.87291186,6.6179891 9.66354295,6.6179891 C8.87199725,6.6179891 8.63936513,6.97409636 8.63936513,7.42378813 C8.63936513,7.86314913 8.94178688,8.13600265 9.41957747,8.13600265 C9.76792916,8.13600265 10.0715439,7.93424905 10.2803163,7.69664164 L10.2803163,7.69664164 Z M7.16125643,2.72754766 C7.16125643,2.72754766 8.13950432,2.36050195 9.60568317,2.36050195 C11.0724585,2.36050195 12.5046373,2.79925526 12.5046373,5.33697527 L12.5046373,9.76036222 L10.9561424,9.76036222 L10.6996506,8.97765547 L10.6292645,8.97765547 C10.6292645,8.97765547 10.0369473,9.91410819 8.80220761,9.91410819 C7.48694139,9.91410819 6.54448306,9.20310905 6.54448306,7.59029562 C6.54448306,5.8826823 7.64978388,5.15892164 9.19827871,5.15892164 C9.64027974,5.15892164 10.0822808,5.23062924 10.2803163,5.27802919 L10.2803163,5.05257561 C10.2803163,4.6138223 10.0715439,4.18661512 9.10522586,4.18661512 C8.13950432,4.18661512 7.16125643,4.50686858 7.16125643,4.50686858 L7.16125643,2.72754766 Z" id="Fill-14"></path>
                                <path d="M15.8046119,9.67805799 L13.5564292,9.67805799 L13.5564292,2.48991501 L15.1134172,2.48991501 L15.3594153,3.31153745 L15.3714153,3.30070287 L15.4536146,3.30070287 C16.0152103,2.66627792 16.705805,2.36050195 17.4317994,2.36050195 C18.918588,2.36050195 19.8671807,3.30070287 19.8671807,5.00353794 L19.8671807,9.67805799 L17.6075981,9.67805799 L17.6075981,5.19133736 C17.6075981,4.53403941 17.3502001,4.27521329 16.7412047,4.27521329 C16.448407,4.27521329 16.0974097,4.39258792 15.8046119,4.76878868 L15.8046119,9.67805799 Z" id="Fill-16"></path>
                                <path d="M29.5432357,3.09532891 C29.1257527,2.95301868 28.3518221,2.83493148 27.7683224,2.83493148 C26.3388703,2.83493148 25.9934092,3.40235565 25.9934092,5.26995026 C25.9934092,7.24352057 26.3742709,7.81033916 27.803723,7.81033916 C28.3518221,7.81033916 29.1257527,7.69164638 29.5670395,7.49120091 L29.5670395,9.48838866 C28.9829295,9.77240354 28.1613913,9.91410819 27.4466652,9.91410819 C24.7311944,9.91410819 23.3731538,8.40138078 23.3731538,5.25783875 C23.3731538,2.35107671 24.6835867,0.708150585 27.6132922,0.708150585 C28.2566067,0.708150585 29.042134,0.803225926 29.5432357,1.00306582 L29.5432357,3.09532891 Z" id="Fill-18"></path>
                                <path d="M32.5122109,9.67805799 L30.2682342,9.67805799 L30.2682342,2.50172111 L31.8229082,2.50172111 L32.1265368,3.74505062 L32.2552944,3.74505062 C32.5942565,2.8298303 33.1200669,2.36050195 33.7393015,2.36050195 C34.019574,2.36050195 34.2070212,2.41939334 34.3585361,2.49030339 L34.3585361,4.43672402 C34.2770894,4.41268671 33.9968168,4.37783262 33.8447031,4.37783262 C33.1787565,4.37783262 32.7924834,4.65906907 32.5122109,5.3273061 L32.5122109,9.67805799 Z" id="Fill-20"></path>
                                <path d="M35.1307269,9.67805799 L37.4435173,9.67805799 L37.4435173,2.41053812 L35.1307269,2.41053812 L35.1307269,9.67805799 Z M36.2931387,1.87621535 C35.4472013,1.87621535 35.0597307,1.62670245 35.0597307,0.937803393 C35.0597307,0.332278165 35.4472013,0 36.2931387,0 C37.149906,0 37.5139118,0.332278165 37.5139118,0.937803393 C37.5139118,1.56767134 37.149906,1.87621535 36.2931387,1.87621535 L36.2931387,1.87621535 Z" id="Fill-22"></path>
                                <path d="M40.8858472,9.91410819 C39.9727762,9.91410819 39.2444511,9.79598844 38.5972484,9.59427626 L38.5972484,7.73888766 C39.2101073,7.96361804 40.0651492,8.12898569 40.6424801,8.12898569 C41.1860593,8.12898569 41.4169917,7.8927462 41.4169917,7.59714396 C41.4169917,7.06530224 40.6655733,7.06530224 39.9621178,6.8054388 C39.1757635,6.52134567 38.3319722,6.16698644 38.3319722,4.77196197 C38.3319722,3.3411987 39.1870141,2.36050195 41.0007213,2.36050195 C41.740297,2.36050195 42.4449367,2.46711259 43.045953,2.65610418 L43.045953,4.42850609 C42.503558,4.25162935 41.7521396,4.14562445 41.2896828,4.14562445 C40.7011014,4.14562445 40.4577342,4.36974909 40.4577342,4.63021827 C40.4577342,5.09118815 41.0474999,5.09118815 41.7059532,5.29229459 C42.5384939,5.54064892 43.4740661,5.8598751 43.4740661,7.39664327 C43.4740661,8.87404869 42.7232398,9.91410819 40.8858472,9.91410819" id="Fill-24"></path>
                                <path d="M46.8122981,4.19575659 L46.8122981,7.34214263 C46.8122981,7.80056445 47.0303757,7.99969519 47.5333611,7.99969519 C47.7045403,7.99969519 48.0597958,7.96480219 48.1858353,7.91787713 L48.1858353,9.57288821 C47.9343426,9.70223295 47.4073217,9.79608309 46.8586103,9.79608309 C45.3256185,9.79608309 44.6045554,8.89247471 44.6045554,7.48351944 L44.6045554,4.19575659 L43.9415291,4.19575659 L43.9415291,2.47035791 L44.7077319,2.47035791 L44.7194565,1.0379401 L46.8122981,0.826175682 L46.8122981,2.47035791 L48.2655626,2.47035791 L48.2655626,4.19575659 L46.8122981,4.19575659 Z" id="Fill-25"></path>
                                <path d="M54.1042709,0.236050195 L52.9316963,1.76218724 L51.2536705,1.76218724 L51.7819601,0.236050195 L54.1042709,0.236050195 Z M52.1335522,8.02074369 C52.9076558,8.02074369 53.1775102,7.64239267 53.1775102,6.04531481 C53.1775102,4.42398368 52.9076558,4.0692796 52.1335522,4.0692796 C51.3486304,4.0692796 51.0781749,4.42398368 51.0781749,6.04531481 C51.0781749,7.65451931 51.3600496,8.02074369 52.1335522,8.02074369 L52.1335522,8.02074369 Z M52.122133,9.79608309 C49.7763827,9.79608309 48.7330257,8.69559094 48.7330257,6.04531481 C48.7330257,3.39503868 49.7878019,2.25877295 52.1335522,2.25877295 C54.4913227,2.25877295 55.5112403,3.39503868 55.5112403,6.04531481 C55.5112403,8.69559094 54.4913227,9.79608309 52.122133,9.79608309 L52.122133,9.79608309 Z" id="Fill-26"></path>
                                <path d="M59.4026375,4.19117118 C59.0035616,4.19117118 58.6639866,4.39321578 58.4644486,4.71332258 L58.4644486,7.34963945 C58.6519662,7.62349509 58.9566822,7.84866527 59.4146578,7.84866527 C60.0709693,7.84866527 60.4225647,7.55168405 60.4225647,6.04365238 C60.4225647,4.41694993 60.094409,4.19117118 59.4026375,4.19117118 L59.4026375,4.19117118 Z M58.4644486,2.94421521 C58.9446619,2.44518939 59.5787357,2.26687895 60.1773494,2.26687895 C61.7598294,2.26687895 62.7569179,3.44324102 62.7569179,5.99618407 C62.7569179,8.62093815 61.8890482,9.79608309 60.0240899,9.79608309 C59.2265392,9.79608309 58.4999087,9.44007077 58.0539535,8.87045106 L57.9836344,8.87045106 L57.7372171,9.65367816 L56.2124349,9.65367816 L56.2124349,0.331632489 L58.4644486,0.118025097 L58.4644486,1.82810137 C58.4644486,2.0295374 58.3821092,2.94421521 58.3821092,2.94421521 L58.4644486,2.94421521 Z" id="Fill-27"></path>
                                <path d="M67.078647,7.69664164 L67.078647,6.68908902 C66.9038572,6.65323521 66.6706053,6.6179891 66.4612154,6.6179891 C65.6695905,6.6179891 65.4363385,6.97409636 65.4363385,7.42378813 C65.4363385,7.86314913 65.7393871,8.13600265 66.2160324,8.13600265 C66.5662086,8.13600265 66.8686606,7.93424905 67.078647,7.69664164 L67.078647,7.69664164 Z M63.9586784,2.72754766 C63.9586784,2.72754766 64.9358311,2.36050195 66.4027533,2.36050195 C67.8696754,2.36050195 69.301401,2.79925526 69.301401,5.33697527 L69.301401,9.76036222 L67.7533477,9.76036222 L67.4974268,8.97765547 L67.4276302,8.97765547 C67.4276302,8.97765547 66.833464,9.91410819 65.5997939,9.91410819 C64.2837994,9.91410819 63.3412468,9.20310905 63.3412468,7.59029562 C63.3412468,5.8826823 64.4472548,5.15892164 65.995308,5.15892164 C66.4385464,5.15892164 66.8799951,5.23062924 67.078647,5.27802919 L67.078647,5.05257561 C67.078647,4.6138223 66.8686606,4.18661512 65.9028424,4.18661512 C64.9358311,4.18661512 63.9586784,4.50686858 63.9586784,4.50686858 L63.9586784,2.72754766 Z" id="Fill-28"></path>
                                <polygon id="Fill-29" points="70.4700587 9.67805799 70.4700587 0.33217862 72.8073741 0.118025097 72.8073741 9.67805799"></polygon>
                                <path d="M49.9016833,16.4698019 C49.9016833,16.8899731 49.7828221,17.2204997 49.5450995,17.4613816 C49.3073769,17.7016537 48.9707994,17.8217897 48.5365438,17.8217897 C48.2652812,17.8217897 48.032266,17.7998359 47.8345561,17.757148 C47.6380231,17.7150699 47.4479627,17.6406709 47.2631981,17.5345609 L47.2631981,16.9479068 C47.4391364,17.0582855 47.6227241,17.138173 47.8133729,17.1869592 C48.0040217,17.2357454 48.2099695,17.2601385 48.4318046,17.2601385 C48.7148357,17.2601385 48.9278446,17.1954968 49.0714196,17.0662133 C49.2149946,16.93632 49.2867821,16.7503226 49.2867821,16.5076112 C49.2867821,16.3252728 49.2361778,16.1837928 49.1332039,16.0843909 C49.0308185,15.9837693 48.9025424,15.9020524 48.7483758,15.8386303 C48.5942092,15.7745984 48.4288625,15.7166648 48.2499822,15.663 C48.0722787,15.609945 47.9057552,15.539205 47.752177,15.4501701 C47.5985988,15.3605255 47.4703227,15.2403894 47.3673489,15.0891522 C47.2655518,14.9385248 47.2137707,14.7336227 47.2137707,14.474446 C47.2137707,14.2994254 47.2414265,14.1359916 47.2967382,13.9835347 C47.3520499,13.8298582 47.4373711,13.6975256 47.5521134,13.5853173 C47.6668558,13.4724992 47.8127845,13.3828545 47.9887227,13.3169932 C48.164661,13.2511318 48.376493,13.2188109 48.6224534,13.2188109 C48.8313433,13.2188109 49.0272879,13.2377156 49.2096988,13.2755249 C49.3926981,13.3145539 49.5533374,13.3627302 49.6933819,13.4224933 L49.6933819,13.9707284 C49.5209742,13.9030375 49.3503317,13.8536415 49.1814545,13.8237599 C49.0137542,13.7938784 48.8372276,13.7792425 48.6530514,13.7792425 C48.5012385,13.7792425 48.3729624,13.7981471 48.2688117,13.8335171 C48.1640725,13.869497 48.0787513,13.9182832 48.0134364,13.9798758 C47.9475332,14.0420782 47.9004594,14.1122084 47.8722151,14.1902663 C47.842794,14.2695439 47.8292603,14.3530903 47.8292603,14.4421251 C47.8292603,14.612267 47.8798646,14.7439898 47.9828385,14.8372934 C48.085224,14.9312068 48.2135,15.0080451 48.3664898,15.0671984 C48.5206564,15.1269615 48.6871799,15.181846 48.8654718,15.2330715 C49.0437638,15.2836872 49.2096988,15.3562567 49.3638654,15.4501701 C49.5180321,15.5422541 49.6451313,15.6684884 49.7486936,15.8258239 C49.8504906,15.9831595 49.9016833,16.197209 49.9016833,16.4698019" id="Fill-30"></path>
                                <polygon id="Fill-31" points="50.8366095 13.336836 53.2907906 13.336836 53.2907906 13.8868919 51.4641161 13.8868919 51.4641161 15.1641706 53.1280593 15.1641706 53.1280593 15.7142264 51.4641161 15.7142264 51.4641161 17.1531102 53.2907906 17.1531102 53.2907906 17.7037646 50.8366095 17.7037646"></polygon>
                                <path d="M57.147361,17.5662719 C56.9752309,17.6425004 56.7724474,17.7047028 56.5401896,17.7510497 C56.3091107,17.7980064 56.0656526,17.8217897 55.8104048,17.8217897 C55.4690919,17.8217897 55.1772959,17.7766625 54.9350169,17.6876276 C54.6921483,17.5985928 54.4929017,17.4583325 54.3343297,17.2705056 C54.1757578,17.0808492 54.0602184,16.8417967 53.9865325,16.5527385 C53.9122572,16.2636802 53.8751195,15.9215669 53.8751195,15.5263986 C53.8751195,14.7226458 54.0354599,14.1372113 54.3555513,13.7694852 C54.6762321,13.402369 55.1831908,13.2188109 55.8781958,13.2188109 C56.0998429,13.2188109 56.3197215,13.2383254 56.5378316,13.2791838 C56.7553523,13.3194325 56.9481145,13.3712678 57.1167077,13.4346899 L57.1167077,13.9902428 C56.9481145,13.9219422 56.7565312,13.869497 56.5437265,13.8335171 C56.3297428,13.7981471 56.1187065,13.7798523 55.9082596,13.7798523 C55.6583172,13.7798523 55.4431545,13.8072946 55.26454,13.862179 C55.086515,13.9176734 54.9391433,14.0121966 54.8241933,14.1457489 C54.7092434,14.2793011 54.6249468,14.4585904 54.5713035,14.6817874 C54.5182496,14.9049843 54.4911333,15.1842853 54.4911333,15.5196905 C54.4911333,15.8471679 54.5153022,16.1215903 54.5624612,16.3423479 C54.6096201,16.5631055 54.6856639,16.7411752 54.7905926,16.8777766 C54.8949317,17.0137681 55.0299242,17.1113406 55.1938016,17.1711037 C55.3576789,17.2308668 55.5581045,17.2601385 55.7921307,17.2601385 C55.9359655,17.2601385 56.0674211,17.2528206 56.1894449,17.2375749 C56.3102897,17.2235488 56.4228817,17.2028147 56.5254524,17.1772019 L56.5254524,15.8325321 L55.668928,15.8325321 L55.668928,15.3099098 L57.1414661,15.3099098 L57.147361,17.5662719 Z" id="Fill-32"></path>
                                <path d="M61.4713945,16.2283476 C61.4713945,16.8199199 61.3290717,17.2539877 61.0456074,17.5274504 C60.760962,17.8027734 60.3576158,17.9398148 59.8349784,17.9398148 C59.312341,17.9398148 58.9089949,17.8027734 58.62494,17.5274504 C58.3414757,17.2539877 58.1991529,16.8199199 58.1991529,16.2283476 L58.1991529,13.336836 L58.8162784,13.336836 L58.8162784,16.2413696 C58.8162784,16.6338909 58.8989555,16.9209957 59.0631286,17.1002037 C59.2278923,17.2794117 59.4853724,17.3687056 59.8349784,17.3687056 C60.185175,17.3687056 60.4420646,17.2794117 60.6068282,17.1002037 C60.7710013,16.9209957 60.854269,16.6338909 60.854269,16.2413696 L60.854269,13.336836 L61.4713945,13.336836 L61.4713945,16.2283476 Z" id="Fill-33"></path>
                                <path d="M64.7496403,14.6067582 C64.7496403,14.3440363 64.6856817,14.1585152 64.5577646,14.0495963 C64.4310658,13.9412759 64.2270075,13.8874149 63.9468081,13.8874149 L63.0428605,13.8874149 L63.0428605,15.3697888 L63.9279251,15.3697888 C64.2123884,15.3697888 64.4201014,15.3129355 64.5522824,15.1980321 C64.6838543,15.0837271 64.7496403,14.8868353 64.7496403,14.6067582 M65.3855711,14.5816231 C65.3855711,14.9029936 65.3112573,15.1657155 65.1632389,15.3697888 C65.0140023,15.575059 64.800198,15.7186883 64.5199986,15.8018736 L65.6785622,17.7037646 L64.927506,17.7037646 L63.8767583,15.8832635 L63.0428605,15.8832635 L63.0428605,17.7037646 L62.4063206,17.7037646 L62.4063206,13.336836 L63.960209,13.336836 C64.4475122,13.336836 64.8081167,13.4391719 65.0389766,13.6438436 C65.2704457,13.8473184 65.3855711,14.160909 65.3855711,14.5816231" id="Fill-34"></path>
                                <path d="M69.1214409,15.5135922 C69.1214409,15.1733084 69.0997776,14.8921779 69.0570699,14.6683711 C69.0137433,14.4457841 68.9438018,14.2683242 68.8466264,14.1366015 C68.749451,14.0048787 68.6231849,13.9127947 68.4678281,13.8591299 C68.3124713,13.8060749 68.1230722,13.7798523 67.8983928,13.7798523 C67.6780461,13.7798523 67.4911228,13.8060749 67.335147,13.8591299 C67.1797902,13.9127947 67.054143,14.0048787 66.9563487,14.1366015 C66.8597923,14.2683242 66.7886129,14.4457841 66.7434294,14.6683711 C66.697627,14.8921779 66.6759637,15.1733084 66.6759637,15.5135922 C66.6759637,15.853876 66.697627,16.1350065 66.7434294,16.3582035 C66.7886129,16.5814004 66.8597923,16.7600798 66.9563487,16.8936321 C67.054143,17.0271843 67.1797902,17.1223174 67.335147,17.1778118 C67.4911228,17.2326962 67.6780461,17.2601385 67.8983928,17.2601385 C68.1181206,17.2601385 68.3062818,17.2326962 68.4610197,17.1778118 C68.6169954,17.1223174 68.7432615,17.0271843 68.839199,16.8936321 C68.9369933,16.7600798 69.0081727,16.5814004 69.0533562,16.3582035 C69.0985397,16.1350065 69.1214409,15.853876 69.1214409,15.5135922 M69.7688641,15.5135922 C69.7688641,15.9215669 69.7335838,16.2722178 69.6648802,16.5655448 C69.5961766,16.8582621 69.4872412,17.0979243 69.3380739,17.2833119 C69.1895255,17.4680897 68.9964127,17.6040813 68.7593543,17.690067 C68.5216769,17.7778821 68.2344834,17.8217897 67.8983928,17.8217897 C67.5666348,17.8217897 67.2812982,17.7778821 67.0442398,17.690067 C66.8071814,17.6040813 66.6134496,17.46687 66.4618065,17.279653 C66.3107824,17.0930457 66.201228,16.8539933 66.1319054,16.5624957 C66.0625828,16.2716079 66.0291595,15.9215669 66.0291595,15.5135922 C66.0291595,15.1056175 66.0625828,14.7567961 66.1319054,14.4683477 C66.201228,14.1792894 66.3107824,13.9420665 66.4618065,13.7572887 C66.6134496,13.5725109 66.8059435,13.4365194 67.0405261,13.3487042 C67.2769656,13.2621087 67.5616832,13.2188109 67.8983928,13.2188109 C68.2344834,13.2188109 68.5216769,13.2621087 68.7593543,13.3487042 C68.9964127,13.4365194 69.1895255,13.5725109 69.3380739,13.7572887 C69.4872412,13.9420665 69.5961766,14.1792894 69.6648802,14.4683477 C69.7335838,14.7567961 69.7688641,15.1056175 69.7688641,15.5135922" id="Fill-35"></path>
                                <path d="M72.9242398,16.4698019 C72.9242398,16.8899731 72.805967,17.2204997 72.567656,17.4613816 C72.3305218,17.7016537 71.9933559,17.8217897 71.5591003,17.8217897 C71.2884261,17.8217897 71.0548224,17.7998359 70.857701,17.757148 C70.661168,17.7150699 70.4705192,17.6406709 70.2857546,17.5345609 L70.2857546,16.9479068 C70.4616928,17.0582855 70.6452806,17.138173 70.8365178,17.1869592 C71.0265782,17.2357454 71.232526,17.2601385 71.4549496,17.2601385 C71.7373922,17.2601385 71.9509895,17.1954968 72.0945645,17.0662133 C72.2375511,16.93632 72.3093386,16.7503226 72.3093386,16.5076112 C72.3093386,16.3252728 72.2581459,16.1837928 72.1557604,16.0843909 C72.0533749,15.9837693 71.9250989,15.9020524 71.7715207,15.8386303 C71.6173541,15.7745984 71.451419,15.7166648 71.2731271,15.663 C71.0942467,15.609945 70.9289001,15.539205 70.7747335,15.4501701 C70.6211553,15.3605255 70.4928792,15.2403894 70.3904938,15.0891522 C70.2881083,14.9385248 70.2363271,14.7336227 70.2363271,14.474446 C70.2363271,14.2994254 70.263983,14.1359916 70.3198831,13.9835347 C70.3746064,13.8298582 70.4599276,13.6975256 70.5752583,13.5853173 C70.6900007,13.4724992 70.8359294,13.3828545 71.0118676,13.3169932 C71.1883943,13.2511318 71.3996379,13.2188109 71.6450099,13.2188109 C71.8544882,13.2188109 72.0498444,13.2377156 72.2334321,13.2755249 C72.4146662,13.3145539 72.5758939,13.3627302 72.7159384,13.4224933 L72.7159384,13.9707284 C72.5441191,13.9030375 72.3728882,13.8536415 72.2051879,13.8237599 C72.0363107,13.7938784 71.8603725,13.7792425 71.6761963,13.7792425 C71.523795,13.7792425 71.3955189,13.7981471 71.2913682,13.8335171 C71.1872174,13.869497 71.1018962,13.9182832 71.0359929,13.9798758 C70.9706781,14.0420782 70.9236043,14.1122084 70.8941832,14.1902663 C70.8659389,14.2695439 70.8518168,14.3530903 70.8518168,14.4421251 C70.8518168,14.612267 70.9030095,14.7439898 71.0048066,14.8372934 C71.1077804,14.9312068 71.2354681,15.0080451 71.3902231,15.0671984 C71.5432129,15.1269615 71.7103248,15.181846 71.8880283,15.2330715 C72.0663202,15.2836872 72.2334321,15.3562567 72.3864219,15.4501701 C72.5400001,15.5422541 72.6682762,15.6684884 72.7706616,15.8258239 C72.8736355,15.9831595 72.9242398,16.197209 72.9242398,16.4698019" id="Fill-36"></path>
                            </g>
                        </g>
                    </g>
                </g>
            </g>
        </g>
    </g>
</svg>