<?xml version="1.0" encoding="UTF-8"?>
<svg width="30px" height="40px" viewBox="0 0 30 40" version="1.1" xmlns="http://www.w3.org/2000/svg" xmlns:xlink="http://www.w3.org/1999/xlink">
    <!-- Generator: sketchtool 55.2 (78181) - https://sketchapp.com -->
    <title>DF8F5E4F-72B8-4AB1-8E59-17FC8DA416C8</title>
    <desc>Created with sketchtool.</desc>
    <defs>
        <polygon id="path-1" points="29.3077192 38.9743786 0 38.9743786 0 0.00470773889 29.3077192 0.00470773889"></polygon>
    </defs>
    <g id="Explorecion-de-menu" stroke="none" stroke-width="1" fill="none" fill-rule="evenodd">
        <g id="06" transform="translate(-17.000000, -32.000000)">
            <g id="Group-2">
                <g id="01-atm/logos/logo-main-nav-copy-01-atm/logos/logo-main-nav" transform="translate(17.000000, 32.000000)">
                    <g id="01-atm/logos/logo-main_nav" transform="translate(0.000000, 0.500000)">
                        <path d="M13.9940996,6.42854464 C13.9857222,6.43269374 13.9799224,6.43684284 13.9728337,6.44099193 C13.9109692,6.46899834 13.8645707,6.55612939 13.8645707,6.66400593 C13.8645707,6.79366522 13.9296574,6.89946721 14.0102102,6.8984375 C14.078519,6.8984375 14.1320061,6.82270891 14.1494055,6.72209329 C14.1661604,6.68267687 14.2093367,6.62251495 14.302778,6.68475141 C14.418774,6.76254699 14.4426177,6.73454058 14.4722611,6.59450854 C14.4999713,6.4544765 14.1906485,6.34245087 13.9940996,6.42854464" id="Fill-8" fill="#00467F"></path>
                        <g id="Group">
                            <g id="Group-3">
                                <mask id="mask-2" fill="white">
                                    <use xlink:href="#path-1"></use>
                                </mask>
                                <g id="Clip-2"></g>
                                <path d="M20.2938995,5.53694581 C20.2343765,2.46661901 17.7273614,-0.00154473793 14.643913,0.00470773889 C11.5612477,0.00941791832 9.06128143,2.48697823 9.01428958,5.55730503 L-0.000313278987,5.57218292 L0.670886951,7.07641597 L14.7136176,38.9746135 L28.7790609,6.72012964 L29.3077192,5.52128487 L20.2938995,5.53694581 Z" id="Fill-1" fill="#67BBF4" mask="url(#mask-2)"></path>
                            </g>
                            <path d="M6.22143986,10.785755 C8.32946134,11.7871865 9.88463617,10.8688158 9.88463617,10.8688158 C9.88463617,10.8688158 7.30912256,12.7204454 8.97940852,15.9872433 L7.50019137,16.7653509 L9.53773665,21.3180244 C9.53773665,21.3180244 11.08743,21.1950004 11.4264988,20.4545053 C11.4264988,20.4545053 10.5009114,18.4257838 10.9417792,17.5763693 C10.9417792,17.5763693 11.2683189,17.7785362 11.9080862,17.928986 C12.6198958,18.0951077 13.4076632,18.0998092 14.2604252,17.607713 C14.5548591,17.438457 14.6879808,17.197894 14.7005099,17.5528615 C14.7122559,17.9086126 15.4115365,19.2093765 14.0020125,21.0296623 C12.5924884,22.8491645 10.8963612,24.3066469 11.2777157,25.2226668 L14.7435787,33.0585938 L20.554733,19.8997216 C20.554733,19.8997216 19.5500556,20.2264798 19.0872619,19.5408362 C18.6557909,18.9022081 18.804574,17.8984259 19.7583519,17.3593141 C19.7583519,17.3593141 19.4333783,16.0577666 20.0065848,16.209 C20.0065848,16.209 20.2305425,16.3978459 20.4631139,16.5216535 C20.6949023,16.6462448 21.4881511,17.4243523 22.1012941,16.0373932 C22.5797492,14.9536845 24.6611463,9.86581718 25.5961306,7.60828662 L24.1779928,7.60828662 L21.0057807,14.8729745 C21.0057807,14.8729745 21.3135268,13.9044539 21.3714739,13.2956024 C21.5586273,11.6241992 20.8828389,10.9001595 20.8828389,10.9001595 C20.8851881,10.8758682 20.8875373,10.8507932 20.8891034,10.8257182 C20.8914526,10.7810534 20.8938018,10.7160152 20.8930188,10.6368724 L20.8961511,10.6368724 C20.8969341,10.4409742 20.8789235,10.2630987 20.8452516,10.1048129 L20.8405532,10.1048129 C20.8303733,10.0483943 20.8178442,9.98962482 20.8029659,9.93085537 C20.4615478,8.78916081 19.3033889,8.6724055 19.3033889,8.6724055 C18.9126375,8.60501653 18.8202354,8.37855824 18.3175052,8.33154268 C17.5594945,8.26101934 16.7270922,8.66300239 16.7270922,8.66300239 C16.7270922,8.66300239 16.0677482,9.05244796 15.9542032,8.28922867 C15.8696318,7.71877319 16.6346901,7.46645635 16.6346901,7.46645635 C16.6589652,7.44059779 17.2165103,7.27525973 16.9996002,6.76200651 C17.2266902,6.47207722 17.7771876,5.701022 17.281505,5.19952268 C16.7991346,4.71212802 16.5743938,4.09857494 15.9448064,3.91678144 C15.2329968,3.71148015 14.9730179,3.87525103 14.9730179,3.87525103 C14.0012294,3.04385918 13.4436843,3.86819869 13.4436843,3.86819869 C12.6418218,3.95831185 12.9761922,5.07414785 12.9761922,5.07414785 C12.2072185,5.59210262 12.7890387,6.29733604 12.7741604,6.44543506 C12.7600652,6.59588486 12.5212292,6.78081274 12.3528693,7.09424982 C12.1837265,7.4069033 12.5658641,7.76500516 12.5658641,7.76500516 C12.5658641,7.76500516 12.7913879,8.01262045 12.2338429,7.86217066 C11.6762978,7.71093727 11.1367633,7.23216213 9.81024463,8.07687505 C8.08984225,9.17233764 6.61767272,9.04931359 6.61767272,9.04931359 C6.61767272,9.04931359 5.50649795,8.1466148 4.7876407,7.90213388 C4.08444483,7.66157093 3.64357703,7.9428807 3.52220136,8.42792458 C3.45015902,8.71471951 3.58797914,9.19192746 4.05860355,9.24599535 C4.05860355,9.24599535 3.91530194,9.34316085 3.86988395,9.59939566 C3.7829633,10.0875739 4.81426504,10.785755 6.22143986,10.785755" id="Fill-4" fill="#025499"></path>
                            <path d="M12.6010548,13.9985041 C12.6010548,13.9985041 11.796981,13.9309065 11.778991,13.4856951 C11.7578723,12.9876487 13.650731,14.3877728 14.2326677,13.1679088 C14.762981,12.0552686 14.6026355,10.0591983 16.3022975,9.33582671 C16.3022975,9.33582671 15.0695928,9.45470517 15.3566503,7.54410299 C15.3566503,7.54410299 15.9667452,7.39259123 16.0316656,7.02041618 C16.0981503,6.64668716 15.9597057,6.60550704 15.5748766,6.6777665 C15.5748766,6.6777665 15.2189879,6.48507462 15.1165232,5.72440787 C15.1165232,5.72440787 14.202163,5.69565948 13.8384525,5.33203125 C13.8384525,5.33203125 13.1063386,5.4703343 13.524019,6.45166433 C13.524019,6.45166433 13.6874931,6.63814035 13.3261292,6.9256242 C12.9655474,7.21310806 13.2745058,7.21310806 13.411386,7.47495147 C13.5490485,7.73524091 12.7019551,8.23406425 13.9909762,8.69947731 C13.9909762,8.69947731 13.6405627,8.79737722 13.0906951,8.76318995 C12.5408275,8.72744871 11.7719514,7.95201928 10.7488692,8.38479903 C9.58421355,8.87662952 8.48447831,9.70023193 6.47820457,9.52696463 C6.47820457,9.52696463 5.90487176,9.01260162 5.83760488,8.91703266 C5.77815973,8.83467242 5.56540867,8.80514705 5.49423093,8.80048515 C5.49423093,8.80048515 4.43438651,8.09498422 4.26309063,8.23251028 C4.26309063,8.23251028 4.25761542,8.49279972 4.5102573,8.573606 C4.5102573,8.573606 3.99011225,8.45938944 3.96977575,8.50756241 C3.96977575,8.50756241 3.87435065,8.73832648 4.32410012,8.79116135 C4.32410012,8.79116135 5.16337175,9.03591112 5.39176627,9.46635992 C5.40349886,9.48811546 5.41366711,9.50754004 5.42774623,9.53240351 C5.43556796,9.5471662 5.43947882,9.56736777 5.43947882,9.59067727 C5.43947882,9.66837561 5.39645931,9.76938345 5.3385785,9.74296601 C5.26270772,9.70877875 4.74021616,9.46247501 4.52511858,9.50054719 C4.39449569,9.5331805 4.36320877,9.69557003 4.65574147,9.83387307 C4.65574147,9.83387307 5.24080688,10.0654141 5.3792515,10.1858466 C5.3792515,10.1858466 5.79380319,10.4632296 6.23338442,10.2689838 L6.29048305,10.2798615 C6.29048305,10.2798615 6.57206533,10.3404662 7.01790394,10.4375892 C7.71951312,10.5922089 8.41486492,10.6986556 9.5482336,10.2969552 C9.5482336,10.2969552 12.8497858,8.98152228 10.6393649,11.1873782 C10.6393649,11.1873782 7.78521565,13.9969501 10.6088602,16.1903743 C10.6088602,16.1903743 13.5216724,18.4995689 14.6174968,16.1841584 C14.6174968,16.1841584 15.3167595,14.377672 12.6010548,13.9985041" id="Fill-6" fill="#67BBF4"></path>
                            <path d="M19.2744499,10.0739693 C19.0144982,9.92145735 18.3304954,9.76420408 18.3304954,9.76420408 C18.3304954,9.76420408 18.2200735,9.72706386 18.1901675,9.77289647 C17.6848336,10.5686455 16.0591768,10.683227 16.0714459,11.064902 C16.0852487,11.4457869 17.1633965,11.5477249 17.0084991,11.8503782 C16.8996107,12.0605761 16.5882821,12.0107924 16.3053258,11.9096445 C16.2524153,12.0021 16.155796,12.0661076 16.0430736,12.0661076 C15.9173153,12.0661076 15.8091937,11.9878761 15.761651,11.878826 C15.7386464,11.9594282 15.6803681,12.0068413 15.6013857,12.0661076 C15.0347063,12.4809718 15.0845496,13.5809545 15.0845496,13.5809545 C15.3560036,13.3446795 16.5307707,13.5288001 16.5307707,13.5288001 L17.0698446,12.4414609 C17.3558682,11.2956455 18.7231069,12.2597109 18.6832323,12.5765881 C18.6609945,12.736212 18.4194465,12.6895892 18.1863334,12.6026653 C18.1479925,12.7314707 18.0306691,12.8255066 17.8934085,12.8255066 C17.725475,12.8262968 17.5874476,12.6848479 17.5874476,12.5102098 C17.5874476,12.4865033 17.5905149,12.4627968 17.594349,12.4414609 C16.7776865,12.8294577 17.454021,14.7773438 17.454021,14.7773438 L18.3742041,14.138848 C20.1808303,13.3344066 19.2744499,10.0739693 19.2744499,10.0739693" id="Fill-10" fill="#67BBF4"></path>
                        </g>
                    </g>
                </g>
            </g>
        </g>
    </g>
</svg>