<svg xmlns="http://www.w3.org/2000/svg" xmlns:xlink="http://www.w3.org/1999/xlink" width="317" height="312" viewBox="0 0 317 312">
    <defs>
        <path id="a" d="M265.895.37H.183v238.505h265.712V.37z"/>
        <path id="c" d="M.159 10.515a24.946 24.946 0 0 0 9.789 1.987c1.137 0 2.257-.076 3.354-.223V.365H.16v10.15z"/>
        <path id="e" d="M.604 10.43a24.942 24.942 0 0 0 9.986 2.072c1.208 0 2.397-.086 3.56-.251V.159H.604v10.272z"/>
        <path id="g" d="M25.928.658a24.91 24.91 0 0 1-12.771 3.5A24.91 24.91 0 0 1 .05.455h25.877v.203z"/>
        <path id="i" d="M.442.3A24.91 24.91 0 0 0 13.8 4.157a24.91 24.91 0 0 0 12.937-3.6V.3H.442z"/>
        <path id="k" d="M16.276 3.877c-1.227.185-2.483.28-3.761.28A24.913 24.913 0 0 1 .324.994V.456h15.952v3.42z"/>
        <path id="m" d="M.34.63a24.91 24.91 0 0 0 12.817 3.528c1.375 0 2.724-.111 4.04-.325V.3H.34v.332z"/>
    </defs>
    <g fill="none" fill-rule="evenodd" opacity=".691">
        <path fill="#FFF" d="M248.781 187.925l-50.56 3.41a.972.972 0 0 1-1.035-.904l-4.468-66.268a.972.972 0 0 1 .904-1.035l50.56-3.411a.973.973 0 0 1 1.036.905l4.468 66.267a.973.973 0 0 1-.905 1.036"/>
        <path fill="#9DBFD6" d="M244.249 120.036h-.045l-50.56 3.412a.652.652 0 0 0-.606.694l4.468 66.267a.653.653 0 0 0 .694.607l50.56-3.411a.652.652 0 0 0 .606-.694l-4.467-66.268a.653.653 0 0 0-.65-.607m-46.093 71.623a1.296 1.296 0 0 1-1.29-1.206l-4.468-66.268a1.295 1.295 0 0 1 1.202-1.378l50.561-3.41a1.3 1.3 0 0 1 1.378 1.203l4.467 66.268a1.295 1.295 0 0 1-1.203 1.378l-50.56 3.41a1.32 1.32 0 0 1-.087.003"/>
        <g fill="#E8F0F6">
            <path d="M228.514 132.13l-26.883 1.569a1.663 1.663 0 0 1-1.757-1.564l-.024-.42a1.664 1.664 0 0 1 1.563-1.757l26.882-1.569a1.662 1.662 0 0 1 1.757 1.564l.025.42a1.663 1.663 0 0 1-1.563 1.757"/>
            <path d="M228.395 128.707c-.027 0-.054 0-.08.002l-26.883 1.569a1.345 1.345 0 0 0-1.262 1.42l.024.418a1.337 1.337 0 0 0 1.419 1.262l26.882-1.568c.358-.022.687-.18.925-.448.239-.269.357-.613.337-.971l-.024-.42a1.333 1.333 0 0 0-.448-.924 1.335 1.335 0 0 0-.89-.34m-26.861 5.315a1.986 1.986 0 0 1-1.98-1.869l-.024-.418a1.987 1.987 0 0 1 1.864-2.098l26.883-1.568a1.972 1.972 0 0 1 1.434.498c.396.353.631.838.662 1.368l.024.418a1.97 1.97 0 0 1-.498 1.435 1.971 1.971 0 0 1-1.366.662l-26.883 1.57a2.338 2.338 0 0 1-.116.002"/>
        </g>
        <g fill="#E8F0F6">
            <path d="M234.06 140.064l-31.949 1.865a1.663 1.663 0 0 1-1.757-1.565l-.024-.419a1.664 1.664 0 0 1 1.563-1.757l31.949-1.865a1.663 1.663 0 0 1 1.757 1.564l.025.42a1.664 1.664 0 0 1-1.564 1.757"/>
            <path d="M233.941 136.641c-.027 0-.053 0-.08.002l-31.949 1.865a1.346 1.346 0 0 0-1.262 1.42l.024.418c.02.358.18.686.448.925.268.238.617.36.97.337l31.95-1.864a1.345 1.345 0 0 0 1.262-1.419l-.025-.42a1.33 1.33 0 0 0-.448-.924 1.334 1.334 0 0 0-.89-.34m-31.929 5.611c-.486 0-.95-.176-1.317-.502a1.971 1.971 0 0 1-.661-1.367l-.025-.419a1.987 1.987 0 0 1 1.865-2.097l31.95-1.864a1.975 1.975 0 0 1 1.434.498c.396.353.63.838.662 1.368l.024.418a1.987 1.987 0 0 1-1.865 2.097l-31.949 1.865c-.04.003-.079.003-.118.003"/>
        </g>
        <g fill="#E8F0F6">
            <path d="M225.84 148.801l-23.25 1.357a1.663 1.663 0 0 1-1.756-1.564l-.024-.42a1.664 1.664 0 0 1 1.563-1.757l23.248-1.357a1.663 1.663 0 0 1 1.757 1.565l.025.419a1.663 1.663 0 0 1-1.564 1.757"/>
            <path d="M225.72 145.379c-.027 0-.053 0-.08.002l-23.248 1.357c-.358.02-.687.18-.925.448a1.334 1.334 0 0 0-.337.97l.024.419c.02.359.18.687.448.925.268.239.612.359.97.337l23.248-1.356c.359-.021.687-.18.925-.448.24-.268.358-.612.337-.97l-.024-.42a1.333 1.333 0 0 0-.447-.925 1.335 1.335 0 0 0-.891-.34m-23.228 5.104c-.487 0-.95-.176-1.316-.502a1.972 1.972 0 0 1-.662-1.367l-.024-.419a1.97 1.97 0 0 1 .498-1.435 1.971 1.971 0 0 1 1.366-.662l23.248-1.357a1.966 1.966 0 0 1 1.435.499c.396.352.63.838.661 1.367l.025.419a1.97 1.97 0 0 1-.498 1.435 1.971 1.971 0 0 1-1.367.662l-23.248 1.356c-.04.003-.08.004-.118.004"/>
        </g>
        <g fill="#E8F0F6">
            <path d="M241.574 156.14l-38.503 2.247a1.662 1.662 0 0 1-1.757-1.563l-.024-.419a1.662 1.662 0 0 1 1.563-1.758l38.503-2.247a1.663 1.663 0 0 1 1.757 1.564l.025.42a1.664 1.664 0 0 1-1.564 1.757"/>
            <path d="M241.454 152.718l-.08.002-38.502 2.248c-.359.02-.687.18-.925.448a1.33 1.33 0 0 0-.337.97l.024.419a1.343 1.343 0 0 0 1.418 1.263l38.503-2.247a1.345 1.345 0 0 0 1.262-1.42l-.024-.418a1.345 1.345 0 0 0-1.34-1.265m-38.482 5.993a1.97 1.97 0 0 1-1.316-.501 1.974 1.974 0 0 1-.661-1.368l-.025-.418a1.972 1.972 0 0 1 .498-1.435 1.971 1.971 0 0 1 1.367-.662l38.503-2.247a1.979 1.979 0 0 1 2.096 1.866l.025.418a1.987 1.987 0 0 1-1.865 2.097l-38.503 2.247c-.04.003-.079.003-.119.003"/>
        </g>
        <g fill="#E8F0F6">
            <path d="M212.31 166.106l-8.759.511a1.663 1.663 0 0 1-1.757-1.563l-.025-.419a1.663 1.663 0 0 1 1.564-1.758l8.759-.511a1.663 1.663 0 0 1 1.757 1.564l.026.419a1.664 1.664 0 0 1-1.564 1.757"/>
            <path d="M212.19 162.684c-.027 0-.053 0-.08.002l-8.758.512c-.358.02-.687.18-.925.448a1.333 1.333 0 0 0-.337.97l.024.419a1.339 1.339 0 0 0 1.418 1.263l8.76-.512a1.345 1.345 0 0 0 1.262-1.419l-.024-.418a1.345 1.345 0 0 0-1.34-1.265m-8.738 4.257c-.487 0-.95-.176-1.316-.501a1.974 1.974 0 0 1-.662-1.368l-.024-.419a1.97 1.97 0 0 1 .498-1.434 1.971 1.971 0 0 1 1.366-.662l8.759-.512a1.985 1.985 0 0 1 2.097 1.866l.024.419a1.987 1.987 0 0 1-1.864 2.097l-8.76.511c-.04.003-.08.003-.118.003"/>
        </g>
        <g fill="#E8F0F6">
            <path d="M236.265 172.966l-32.233 1.882a1.664 1.664 0 0 1-1.758-1.565l-.024-.418a1.664 1.664 0 0 1 1.563-1.758l32.234-1.881a1.662 1.662 0 0 1 1.757 1.563l.025.42a1.663 1.663 0 0 1-1.564 1.757"/>
            <path d="M236.146 169.544c-.027 0-.053 0-.08.002l-32.234 1.881a1.33 1.33 0 0 0-.925.448 1.333 1.333 0 0 0-.337.97l.024.42a1.339 1.339 0 0 0 1.418 1.263l32.234-1.882c.359-.021.687-.18.926-.448.238-.268.357-.613.337-.97l-.025-.42a1.33 1.33 0 0 0-.448-.925c-.247-.22-.56-.34-.89-.34m-32.214 5.628c-.487 0-.95-.175-1.316-.502a1.972 1.972 0 0 1-.662-1.367l-.024-.418a1.97 1.97 0 0 1 .498-1.436 1.969 1.969 0 0 1 1.366-.661l32.234-1.882a1.963 1.963 0 0 1 1.435.499c.396.352.631.838.662 1.367l.024.419a1.97 1.97 0 0 1-.498 1.435 1.971 1.971 0 0 1-1.367.662l-32.234 1.88c-.04.003-.08.004-.118.004"/>
        </g>
        <g fill="#E8F0F6">
            <path d="M224.444 181.914l-19.933 1.163a1.663 1.663 0 0 1-1.757-1.564l-.024-.419a1.664 1.664 0 0 1 1.563-1.758l19.932-1.163a1.663 1.663 0 0 1 1.757 1.564l.025.419a1.663 1.663 0 0 1-1.563 1.758"/>
            <path d="M224.324 178.491l-.08.002-19.932 1.163c-.358.022-.687.18-.925.45a1.33 1.33 0 0 0-.337.97l.024.418c.021.358.18.687.448.926.268.238.612.358.97.337l19.933-1.163c.358-.021.687-.18.925-.448.239-.269.357-.613.337-.97l-.025-.42a1.33 1.33 0 0 0-.448-.925c-.247-.22-.56-.34-.89-.34m-19.912 4.91c-.487 0-.95-.176-1.316-.502a1.974 1.974 0 0 1-.662-1.368l-.024-.418a1.97 1.97 0 0 1 .498-1.435 1.972 1.972 0 0 1 1.366-.662l19.932-1.163a1.967 1.967 0 0 1 1.435.498c.396.353.631.838.662 1.368l.024.418a1.97 1.97 0 0 1-.498 1.436 1.971 1.971 0 0 1-1.367.661l-19.932 1.163c-.04.003-.08.004-.118.004"/>
        </g>
        <g fill="#E8F0F6">
            <path d="M231.874 189.738l-26.883 1.569a1.663 1.663 0 0 1-1.758-1.564l-.024-.42a1.664 1.664 0 0 1 1.564-1.757l26.883-1.568a1.662 1.662 0 0 1 1.757 1.563l.025.42a1.664 1.664 0 0 1-1.564 1.757"/>
            <path d="M231.755 186.316c-.027 0-.054 0-.08.002l-26.884 1.568a1.345 1.345 0 0 0-1.261 1.42l.024.418a1.352 1.352 0 0 0 1.419 1.263l26.882-1.569a1.345 1.345 0 0 0 1.262-1.42l-.024-.418a1.33 1.33 0 0 0-.448-.925c-.248-.22-.561-.34-.89-.34m-26.862 5.316a1.987 1.987 0 0 1-1.98-1.869l-.024-.42a1.987 1.987 0 0 1 1.865-2.096l26.883-1.57a1.961 1.961 0 0 1 1.434.5c.396.352.631.837.662 1.367l.024.418a1.987 1.987 0 0 1-1.864 2.098l-26.883 1.568c-.04.003-.078.004-.117.004"/>
        </g>
        <path fill="#D9E6EF" d="M194.541 151.208h15.616l8.167-30.172 2.878.23-9.304 35.384h-16.99z"/>
        <path fill="#9DBFD6" d="M129.397 214.823l-.5-1.182c1.125-.478 1.733-.761 1.74-.764l.54 1.163s-.622.291-1.78.783"/>
        <g transform="translate(8.984)">
            <mask id="b" fill="#fff">
                <use xlink:href="#a"/>
            </mask>
            <path fill="#9DBFD6" d="M195.76 1.875a22.228 22.228 0 0 0-3.735-.213L191.99.378a23.25 23.25 0 0 1 3.953.227l-.185 1.27zm-11.132 1.06l-.388-1.223c1.257-.4 2.545-.716 3.825-.939l.22 1.265a27.907 27.907 0 0 0-3.657.898zm18.034 1.493a15.23 15.23 0 0 0-3.294-1.66l.437-1.206a16.5 16.5 0 0 1 3.572 1.8l-.715 1.066zm-24.83 1.722l-.702-1.074a28.377 28.377 0 0 1 3.442-1.924l.548 1.161a27.07 27.07 0 0 0-3.288 1.837zm29.58 3.79a14.17 14.17 0 0 0-2.006-3.079l.974-.837a15.486 15.486 0 0 1 2.188 3.358l-1.156.558zm-35.097 1.233l-1.017-.784a22.177 22.177 0 0 1 2.7-2.903l.86.952a20.88 20.88 0 0 0-2.543 2.735zm36.848 5.966c-.08-1.299-.258-2.544-.53-3.701l1.25-.294a23.51 23.51 0 0 1 .56 3.917l-1.28.078zm-39.999.682l-1.256-.266c.274-1.29.709-2.561 1.293-3.78l1.157.554a15.562 15.562 0 0 0-1.194 3.492zm40.78 7.064l-1.265-.215c.221-1.295.374-2.561.457-3.762l1.28.088a39.475 39.475 0 0 1-.472 3.89zm-41.839.57a83.1 83.1 0 0 1-.291-1.57c-.136-.781-.22-1.57-.248-2.344l1.282-.048c.027.717.104 1.447.23 2.171a68.4 68.4 0 0 0 .287 1.543l-1.26.248zm39.954 6.994l-1.221-.392a60.967 60.967 0 0 0 1.052-3.667l1.245.315a62.953 62.953 0 0 1-1.076 3.744zm-37.955.527a51.347 51.347 0 0 1-1.13-3.729l1.24-.327a50.499 50.499 0 0 0 1.103 3.636l-1.213.42zm35.215 6.743l-1.179-.506c.517-1.205 1-2.399 1.434-3.549l1.2.455a88.008 88.008 0 0 1-1.455 3.6zm-31.976.365a37.206 37.206 0 0 1-1.796-3.478l1.169-.53a35.87 35.87 0 0 0 1.734 3.357l-1.107.65zm4.724 6.242a33.343 33.343 0 0 1-2.547-2.982l1.024-.774c.752.994 1.576 1.959 2.448 2.866l-.925.89zm23.966.409l-1.148-.575c.566-1.131 1.13-2.293 1.678-3.455l1.16.548a160.7 160.7 0 0 1-1.69 3.482zm-17.976 4.614a41.84 41.84 0 0 1-3.12-2.356l.822-.986c.933.779 1.95 1.547 3.023 2.282l-.725 1.06zm-89.502.76l-.512-1.177a14.99 14.99 0 0 1 3.855-1.111l.18 1.27a13.693 13.693 0 0 0-3.523 1.019zm10.63.183a13.226 13.226 0 0 0-3.475-1.143l.22-1.265c1.272.222 2.556.644 3.814 1.252l-.559 1.156zm93.211 1.277l-1.116-.633a142.513 142.513 0 0 0 1.846-3.364l1.133.602a147.537 147.537 0 0 1-1.863 3.395zm-7.62 1.704a68.997 68.997 0 0 1-3.42-1.849l.644-1.11a66.397 66.397 0 0 0 3.356 1.812l-.58 1.147zm-102.4 1.018l-.864-.95a29.456 29.456 0 0 1 3.071-2.461l.73 1.056a28.155 28.155 0 0 0-2.937 2.355zm22.776.467a27.254 27.254 0 0 0-2.813-2.498l.778-1.021c.98.747 1.97 1.627 2.948 2.616l-.913.903zm83.233 3.437l-1.076-.697c.492-.761.984-1.54 1.469-2.325l-.502-.227.532-1.169c1.092.497 2.242.999 3.514 1.534l-.498 1.184c-.65-.274-1.268-.539-1.862-.799a117.16 117.16 0 0 1-1.577 2.5zm10.61 1.173a375.798 375.798 0 0 1-3.594-1.41l.476-1.193c1.164.465 2.357.932 3.58 1.406l-.463 1.197zm-121.74.528l-1.009-.792a55.897 55.897 0 0 1 2.509-2.984l.95.861a54.484 54.484 0 0 0-2.45 2.915zm32.724.73a56.011 56.011 0 0 0-2.3-3.04l.996-.81a57.255 57.255 0 0 1 2.352 3.11l-1.048.74zm96.214 1.503l-3.599-1.377.459-1.199 3.6 1.378-.46 1.198zm-22.235 2.43l-1.027-.77a107.053 107.053 0 0 0 2.241-3.108l1.054.734a107.159 107.159 0 0 1-2.268 3.144zm29.404.362l-.458-.184a547.751 547.751 0 0 0-3.118-1.222l.465-1.197c1.025.399 2.067.807 3.126 1.226l.467.187-.482 1.19zM78.858 68.15l-1.081-.692a92.924 92.924 0 0 1 2.156-3.227l1.052.737a90.31 90.31 0 0 0-2.127 3.182zm41.23.936a101.949 101.949 0 0 0-1.986-3.277l1.085-.688a103.388 103.388 0 0 1 2.011 3.32l-1.11.645zm106.153 1.12a64.13 64.13 0 0 0-3.392-1.746l.553-1.159a65.765 65.765 0 0 1 3.46 1.783l-.621 1.123zm-41.172 2.377l-.962-.85a92.112 92.112 0 0 0 2.472-2.923l.996.81a93.807 93.807 0 0 1-2.506 2.963zm47.618 1.705a65.18 65.18 0 0 0-3.165-2.135l.688-1.085a67.881 67.881 0 0 1 3.226 2.176l-.749 1.044zm-157.73.459l-1.128-.615a105.152 105.152 0 0 1 1.919-3.37l1.105.654c-.402.681-.808 1.382-1.215 2.103-.232.41-.46.819-.682 1.228zm48.815 1.08a189.76 189.76 0 0 0-1.802-3.396l1.126-.615c.616 1.13 1.22 2.272 1.816 3.419l-1.14.591zm55.895 2.335l-.877-.937a77.925 77.925 0 0 0 2.722-2.682l.922.893a78.808 78.808 0 0 1-2.767 2.726zm58.962.917a69.417 69.417 0 0 0-2.904-2.48l.806-.999a70.177 70.177 0 0 1 2.958 2.526l-.86.953zM71.604 81.62l-1.178-.508a82.14 82.14 0 0 1 1.621-3.531l1.153.563a81.49 81.49 0 0 0-1.596 3.476zm56.176.918a27.02 27.02 0 0 1-2.207-3.272l1.112-.639a25.756 25.756 0 0 0 2.103 3.116l-1.008.795zm45.924.615l-.765-1.031a64.367 64.367 0 0 0 2.994-2.364l.826.984a65.988 65.988 0 0 1-3.055 2.41zm70.306 1.342a71.916 71.916 0 0 0-2.618-2.782l.911-.905a73.547 73.547 0 0 1 2.665 2.832l-.958.855zm-76.865 2.862l-.613-1.128a51.59 51.59 0 0 0 3.274-1.94l.694 1.08a53.257 53.257 0 0 1-3.355 1.988zm-33.605.55a25.476 25.476 0 0 1-3.088-2.462l.875-.939a24.22 24.22 0 0 0 2.932 2.338l-.719 1.063zm-64.6.875l-1.224-.384c.382-1.221.806-2.459 1.26-3.678l1.204.448a72.032 72.032 0 0 0-1.24 3.614zm179.852 1.671a74.602 74.602 0 0 0-2.314-3.041l1.002-.804a76.291 76.291 0 0 1 2.354 3.094l-1.042.751zm-88.795.046l-.41-1.217a41.96 41.96 0 0 0 3.536-1.375l.517 1.174a43.103 43.103 0 0 1-3.643 1.418zm-19.337.767a26.34 26.34 0 0 1-3.688-1.405l.546-1.162c1.122.528 2.302.978 3.508 1.337l-.366 1.23zm11.7.954l-.143-1.276a33.898 33.898 0 0 0 3.726-.633l.285 1.251c-1.29.294-2.592.515-3.867.658zm-3.923.2a29.424 29.424 0 0 1-3.925-.306l.185-1.27c1.223.178 2.486.277 3.754.291l-.014 1.284zm-81.37 3.763l-1.259-.242c.243-1.261.528-2.54.847-3.8l1.244.316a66.895 66.895 0 0 0-.831 3.726zm185.878.685a76.99 76.99 0 0 0-1.997-3.26l1.078-.697a80.268 80.268 0 0 1 2.03 3.314l-1.111.643zm3.512 6.792a82.423 82.423 0 0 0-1.675-3.438l1.14-.589a83.01 83.01 0 0 1 1.701 3.492l-1.166.535zm-195.079.228a75.226 75.226 0 0 0-3.495-.08h-.327l-.003-1.284h.33c1.185 0 2.381.027 3.556.082l-.06 1.282zm-11.457.333l-.132-1.277a78.57 78.57 0 0 1 3.876-.306l.07 1.282c-1.271.068-2.554.17-3.814.3zm19.055.43a66.83 66.83 0 0 0-3.787-.485l.048-.476-.433-.029c.086-1.28.215-2.584.383-3.877l1.272.167a61.572 61.572 0 0 0-.317 3.024c1.024.115 2.042.251 3.034.408l-.2 1.268zm-26.611.748l-.263-1.256a74.576 74.576 0 0 1 3.831-.699l.197 1.27c-1.264.196-2.53.427-3.765.685zm34.038.932a50.839 50.839 0 0 0-3.68-.968l.28-1.252c1.302.291 2.572.625 3.774.992l-.374 1.228zm-41.42 1.047l-.401-1.219a68.04 68.04 0 0 1 3.731-1.113l.332 1.24a66.99 66.99 0 0 0-3.661 1.092zm48.404 1.859a47.236 47.236 0 0 0-.903-.482 31.192 31.192 0 0 0-2.505-1.157l.487-1.187c.92.377 1.798.783 2.609 1.205.315.163.624.328.928.494l-.616 1.127zm-55.48.977l-.554-1.158a59.234 59.234 0 0 1 3.57-1.563l.476 1.192c-1.19.475-2.364.99-3.492 1.53zm231.416.538a84.383 84.383 0 0 0-1.353-3.578l1.19-.482c.479 1.184.94 2.407 1.373 3.633l-1.21.427zm-194.527.7a57.988 57.988 0 0 1-.125-3.816v-.08h1.283v.08c0 1.244.041 2.5.123 3.731l-1.281.085zm24.894 1.984a35.945 35.945 0 0 0-3.045-2.245l.707-1.071a37.273 37.273 0 0 1 3.155 2.326l-.817.99zm-68.399.539l-.714-1.067a52.041 52.041 0 0 1 3.32-2.05l.633 1.118c-1.11.63-2.2 1.302-3.239 1.999zm240.26 4.098a90.184 90.184 0 0 0-1.036-3.685l1.228-.374a90.141 90.141 0 0 1 1.05 3.738l-1.242.32zm-246.208.627l-.878-.936a46.32 46.32 0 0 1 2.958-2.554l.797 1.005a45.262 45.262 0 0 0-2.877 2.485zm79.401.258a22.44 22.44 0 0 0-2.311-2.942l.941-.872c.925 1 1.748 2.047 2.444 3.112l-1.074.702zm-28.885.217a54.577 54.577 0 0 1-.669-3.843l1.271-.175c.173 1.262.394 2.524.653 3.752l-1.255.266zm-55.56 5.182l-1.03-.765a43.496 43.496 0 0 1 2.47-3.03l.957.855a42.14 42.14 0 0 0-2.396 2.94zm252.857 1.2a94.779 94.779 0 0 0-.727-3.76l1.256-.268c.267 1.247.514 2.53.736 3.81l-1.265.218zm-165.757.272a15.81 15.81 0 0 0-.942-3.573l1.194-.468a16.995 16.995 0 0 1 1.018 3.864l-1.27.177zm-29.346.835a49.206 49.206 0 0 1-1.242-3.703l1.232-.36c.358 1.226.765 2.44 1.209 3.606l-1.2.457zm-61.7 4.16l-1.15-.567a43.265 43.265 0 0 1 1.883-3.424l1.095.669a42.082 42.082 0 0 0-1.827 3.322zm257.81 2.325a100.294 100.294 0 0 0-.43-3.806l1.272-.169c.169 1.275.315 2.572.436 3.855l-1.278.12zm-166.31.402l-1.21-.427c.415-1.177.69-2.39.817-3.606l1.277.134a17.138 17.138 0 0 1-.884 3.899zm-26.4.151a42.217 42.217 0 0 1-1.858-3.445l1.157-.558a41.35 41.35 0 0 0 1.8 3.342l-1.1.661zM3.601 137.89l-1.231-.364a46.99 46.99 0 0 1 1.26-3.694l1.196.465a45.921 45.921 0 0 0-1.225 3.593zm72.614 2.047a30.049 30.049 0 0 1-2.57-2.983l1.023-.775c.788 1.04 1.615 2 2.46 2.856l-.913.902zm17.464.352l-.924-.891a17.618 17.618 0 0 0 2.28-2.932l1.09.678a18.947 18.947 0 0 1-2.446 3.145zm170.918.51c-.027-1.273-.077-2.56-.148-3.83l1.281-.072c.073 1.284.123 2.588.15 3.875l-1.283.027zM82.806 144.37c-1.16-.38-2.363-1.003-3.576-1.856l.737-1.05c1.109.779 2.198 1.346 3.237 1.685l-.398 1.22zm4.165.207l-.357-1.234.138-.043a13.268 13.268 0 0 0 3.158-1.533l.702 1.075a14.571 14.571 0 0 1-3.464 1.68l-.177.055zm-84.958.741l-1.27-.177a54.3 54.3 0 0 1 .67-3.837l1.256.267c-.26 1.22-.48 2.481-.656 3.747zm263.763 3.205l-1.282-.06c.06-1.271.1-2.56.117-3.832l1.284.017c-.018 1.286-.058 2.59-.12 3.875zm-264.31 4.39l-1.283-.013c.012-1.309.065-2.616.155-3.886l1.28.09a62.204 62.204 0 0 0-.152 3.81zm263.696 3.335l-1.275-.142c.142-1.277.265-2.561.364-3.817l1.28.102c-.1 1.27-.225 2.567-.369 3.857zM.526 160.67a77.14 77.14 0 0 1-.275-3.878l1.282-.057c.056 1.247.147 2.53.27 3.813l-1.277.122zm263.582 3.247l-1.27-.199c.196-1.246.384-2.515.566-3.803l1.271.18a294.056 294.056 0 0 1-.567 3.822zM1.61 168.358a94.71 94.71 0 0 1-.626-3.831l1.27-.181c.178 1.245.385 2.517.618 3.779l-1.262.233zm261.18 3.174l-1.26-.24c.236-1.238.465-2.498.685-3.782l1.265.219c-.222 1.29-.452 2.558-.69 3.803zM3.303 175.928c-.33-1.265-.638-2.532-.914-3.77l1.252-.28c.274 1.222.578 2.476.904 3.726l-1.242.324zm257.887 3.17l-1.25-.292c.287-1.225.564-2.474.833-3.749l1.256.266c-.27 1.283-.55 2.541-.84 3.775zM5.507 183.363a90.132 90.132 0 0 1-.988-3.1l-.18-.602 1.233-.36.177.594c.31 1.036.638 2.064.974 3.056l-1.216.412zm253.73 3.224l-1.233-.357c.35-1.209.69-2.454 1.015-3.699l1.243.324a146.884 146.884 0 0 1-1.025 3.732zM8.333 190.594a78.299 78.299 0 0 1-1.499-3.583l1.196-.467c.468 1.2.964 2.385 1.474 3.525l-1.17.525zm248.517 3.363l-1.207-.436c.423-1.169.84-2.389 1.239-3.625l1.22.394a111.544 111.544 0 0 1-1.252 3.667zm-244.964 3.55a67.952 67.952 0 0 1-1.871-3.41l1.141-.585a66.46 66.46 0 0 0 1.837 3.344l-1.107.65zm242.056 3.637l-1.168-.53a91.04 91.04 0 0 0 1.504-3.517l1.19.48a92.626 92.626 0 0 1-1.526 3.567zM16.23 203.96a60.225 60.225 0 0 1-2.274-3.16l1.065-.716a58.689 58.689 0 0 0 2.225 3.093l-1.016.783zm234.192 4.1l-1.114-.637a78.346 78.346 0 0 0 1.813-3.363l1.144.582a81.258 81.258 0 0 1-1.843 3.417zm-229.03 1.73c-.917-.9-1.82-1.851-2.683-2.826l.962-.851a53.96 53.96 0 0 0 2.62 2.76l-.9.917zm224.825 4.8l-1.04-.752a69.862 69.862 0 0 0 2.151-3.152l1.08.695a70.65 70.65 0 0 1-2.191 3.21zm-218.886.241a53.879 53.879 0 0 1-3.061-2.413l.83-.978c.963.817 1.968 1.61 2.988 2.355l-.757 1.036zm85.866 2.804l-.434-1.208c1.217-.437 2.427-.89 3.598-1.345l.465 1.197c-1.181.459-2.402.915-3.63 1.356zm-79.261 1.328a55.454 55.454 0 0 1-3.377-1.947l.68-1.09a53.232 53.232 0 0 0 3.299 1.902l-.602 1.135zm71.914 1.12l-.376-1.229a162.6 162.6 0 0 0 3.66-1.17l.404 1.218c-1.226.409-2.467.805-3.688 1.18zm135.458.538l-.947-.866a67.369 67.369 0 0 0 2.494-2.892l.994.81a67.307 67.307 0 0 1-2.54 2.948zm-200.263 1.51a59.527 59.527 0 0 1-3.606-1.463l.521-1.173c1.147.51 2.334.991 3.53 1.432l-.445 1.204zm57.353.048l-.319-1.244c1.23-.314 2.477-.65 3.71-.996l.348 1.236c-1.243.35-2.5.688-3.74 1.004zm-7.55 1.727l-.254-1.259c1.236-.249 2.5-.52 3.754-.808l.286 1.251c-1.265.29-2.54.564-3.787.816zm-42.352.46a66.321 66.321 0 0 1-3.758-1.005l.37-1.23c1.195.359 2.434.69 3.684.986l-.296 1.249zm34.718.86l-.182-1.271c1.25-.18 2.526-.381 3.79-.6l.219 1.264c-1.276.222-2.564.426-3.827.606zm-27.068.517a77.556 77.556 0 0 1-3.842-.588l.226-1.263c1.234.22 2.505.415 3.777.577l-.161 1.274zm179.616.309l-.846-.965a71.37 71.37 0 0 0 2.796-2.59l.897.918a71.147 71.147 0 0 1-2.847 2.637zm-160.25.034l-.101-1.28c1.26-.1 2.545-.222 3.817-.365l.143 1.276c-1.286.144-2.584.268-3.859.369zm-11.627.275a90.002 90.002 0 0 1-3.876-.22l.102-1.281c1.25.1 2.534.173 3.82.218l-.046 1.283zm3.877.057l-.006-1.284c1.257-.007 2.546-.038 3.83-.094l.055 1.282c-1.3.057-2.605.089-3.879.096zm161.915 4.453l-.748-1.043a81.606 81.606 0 0 0 3.053-2.298l.796 1.007a82.284 82.284 0 0 1-3.101 2.334zm-6.49 4.246l-.66-1.1c1.111-.667 2.204-1.35 3.245-2.03l.701 1.074a98.553 98.553 0 0 1-3.286 2.056zm-6.774 3.758l-.587-1.142a128.398 128.398 0 0 0 3.381-1.805l.622 1.123c-1.1.61-2.25 1.224-3.416 1.824z" mask="url(#b)"/>
        </g>
        <path fill="#9DBFD6" d="M219.732 241.643l-.54-1.164c.583-.272 1.161-.544 1.734-.819l.554 1.158c-.577.277-1.16.552-1.748.825"/>
        <path fill="#FFF" d="M128.691 154.98l-71.892 16.69a.397.397 0 0 1-.476-.297l-11.165-48.12a.397.397 0 0 1 .297-.476l71.891-16.691a.397.397 0 0 1 .477.297l11.165 48.119a.398.398 0 0 1-.297.477"/>
        <path fill="#9DBFD6" d="M128.546 154.354h-.001zm-82.708-31.008l11.054 47.644 71.416-16.58-11.054-47.644-71.416 16.58zm10.87 48.977c-.193 0-.381-.054-.548-.158a1.031 1.031 0 0 1-.463-.648l-11.164-48.119a1.033 1.033 0 0 1 .13-.784c.146-.236.376-.4.647-.463l71.891-16.69c.27-.064.55-.018.785.13.235.147.4.376.463.647l11.164 48.118a1.041 1.041 0 0 1-.776 1.248l-71.892 16.691a1.032 1.032 0 0 1-.237.028z"/>
        <path fill="#E8F0F6" d="M99.498 144.785l-1.502.37a6.554 6.554 0 0 1-.907 3.548l-.032.039-.007.013a6.418 6.418 0 0 1-3.963 2.927c-1.7.42-3.418.12-4.81-.68l-.088-.062a6.434 6.434 0 0 1-2.501-2.747l-6.145 1.516a6.554 6.554 0 0 1-.907 3.547l-.032.039.003.01a6.421 6.421 0 0 1-3.972 2.93c-1.7.42-3.409.118-4.81-.68l-.099-.059a6.389 6.389 0 0 1-2.47-2.756l-1.128.278-.03.008a1.44 1.44 0 0 1-1.736-1.05l-2.178-8.834-.01-.04a1.43 1.43 0 0 1 1.053-1.726l.385-.095 1.821-8.93a1.433 1.433 0 0 1 1.068-1.197l17.1-4.22a1.462 1.462 0 0 1 1.454.502l5.802 7.122 5.748-1.418.02-.005c.761-.187 1.554.267 1.744 1.037l2.18 8.845.007.029a1.447 1.447 0 0 1-1.058 1.74zm-10.897-8.496l-5.194-6.36-15.333 3.783-1.65 8.048L88.6 136.29zm-15.857 12.277a1.423 1.423 0 0 1 1.724 1.044c.19.77-.281 1.536-1.042 1.724a1.434 1.434 0 0 1-1.744-1.037c-.19-.771.29-1.54 1.062-1.731zm18.452-4.552a1.415 1.415 0 0 1 1.725 1.043c.19.77-.271 1.534-1.042 1.724a1.428 1.428 0 0 1-1.745-1.037 1.429 1.429 0 0 1 1.062-1.73zm4.84-1.33l1.383-.34-1.5-6.078-1.234.305-.019.004-3.992.985-.02.004-24.438 6.031a.881.881 0 0 1-.49-.027c-.13.105-.272.173-.42.251l1.499 6.077 1.017-.251a1.417 1.417 0 0 1 1.727 1.051l.03.12a3.627 3.627 0 0 0 1.635 2.216l.065.048c.768.439 1.72.603 2.668.369a3.58 3.58 0 0 0 2.21-1.625c.482-.8.663-1.768.425-2.736l-.027-.11a1.408 1.408 0 0 1 1.02-1.73l.01-.002-.003-.009 8.693-2.144a1.44 1.44 0 0 1 1.737 1.048l.03.12c.238.968.847 1.74 1.626 2.218l.054.05c.778.438 1.73.6 2.678.367a3.576 3.576 0 0 0 2.616-4.356l-.019-.112a1.423 1.423 0 0 1 1.02-1.73l.02-.005-.002-.009z"/>
        <path fill="#E8F0F6" d="M68.348 133.974l-1.509 7.353 21.192-5.228-4.745-5.81-14.938 3.685zm-2.34 8.22l1.792-8.746 15.727-3.88 5.643 6.91-23.162 5.716zm25.537 2.098c-.09 0-.181.01-.271.033a1.105 1.105 0 0 0 .528 2.145c.6-.149.955-.736.807-1.337a1.103 1.103 0 0 0-.499-.684 1.085 1.085 0 0 0-.565-.157zm-.017 2.853c-.79 0-1.51-.53-1.705-1.324a1.76 1.76 0 0 1 1.296-2.12 1.736 1.736 0 0 1 2.112 1.278 1.727 1.727 0 0 1-1.275 2.114 1.79 1.79 0 0 1-.428.052zm-18.707 1.732a1.117 1.117 0 0 0-.828 1.343c.071.287.25.528.506.679a1.129 1.129 0 0 0 1.53-.376 1.106 1.106 0 0 0-1.209-1.646zm.25 2.821a1.76 1.76 0 0 1-.899-.247 1.722 1.722 0 0 1-.802-1.077 1.759 1.759 0 0 1 1.296-2.12 1.748 1.748 0 0 1 1.912 2.602 1.736 1.736 0 0 1-1.076.79 1.794 1.794 0 0 1-.431.052zm-4.895-2.417a1.73 1.73 0 0 1 1.684 1.339l.03.119a3.3 3.3 0 0 0 1.493 2.02l.086.062c.706.402 1.57.52 2.4.316a3.244 3.244 0 0 0 2.013-1.48 3.28 3.28 0 0 0 .388-2.493l-.027-.109a1.695 1.695 0 0 1 .18-1.312c.183-.314.451-.555.772-.7l-.008-.029.318-.088 8.692-2.145a1.754 1.754 0 0 1 2.126 1.283l.03.12a3.29 3.29 0 0 0 1.482 2.022l.068.057a3.344 3.344 0 0 0 2.42.321 3.278 3.278 0 0 0 2.013-1.481c.449-.743.58-1.627.368-2.487l-.023-.136a1.71 1.71 0 0 1 .2-1.302 1.72 1.72 0 0 1 .785-.698l-.005-.024.297-.084 1.072-.264-1.344-5.454-29.393 7.252c-.164.04-.329.043-.5.01a2.833 2.833 0 0 1-.115.069l1.362 5.523.705-.174c.145-.036.29-.053.431-.053zm4.892 4.596a3.92 3.92 0 0 1-1.949-.518l-.095-.068a3.911 3.911 0 0 1-1.757-2.399l-.03-.119a1.098 1.098 0 0 0-1.338-.817l-1.33.329-1.634-6.633.291-.154c.105-.054.205-.104.3-.18l.133-.107.164.052c.12.038.22.044.316.02l30.015-7.406 1.653 6.7-1.395.345.002.008-.299.075c-.298.073-.534.25-.684.502a1.094 1.094 0 0 0-.123.841l.024.14c.248 1 .09 2.057-.448 2.949a3.92 3.92 0 0 1-2.406 1.77 3.981 3.981 0 0 1-2.914-.398l-.114-.094a3.86 3.86 0 0 1-1.72-2.378l-.03-.119a1.112 1.112 0 0 0-1.348-.814l-8.373 2.066v.004l-.322.085c-.29.072-.53.252-.681.508a1.065 1.065 0 0 0-.112.826l.029.118a3.92 3.92 0 0 1-.462 2.978 3.882 3.882 0 0 1-2.407 1.771 3.986 3.986 0 0 1-.956.117zm-5.633-1.512l.111.24a6.037 6.037 0 0 0 2.348 2.618l.097.057a6.204 6.204 0 0 0 4.567.644 6.138 6.138 0 0 0 3.705-2.672l-.007-.026.1-.134a6.226 6.226 0 0 0 .866-3.373l-.007-.26 6.649-1.64.113.235a6.104 6.104 0 0 0 2.377 2.61l.107.076a6.163 6.163 0 0 0 4.55.631 6.078 6.078 0 0 0 3.764-2.782 6.244 6.244 0 0 0 .9-3.423l-.008-.26 1.754-.433c.287-.07.533-.25.69-.507.157-.257.205-.556.134-.843l-2.188-8.873a1.084 1.084 0 0 0-.508-.679 1.124 1.124 0 0 0-.846-.124l-5.966 1.471-5.931-7.28a1.14 1.14 0 0 0-1.128-.392l-17.1 4.219a1.117 1.117 0 0 0-.826.925l-1.866 9.154-.583.143a1.112 1.112 0 0 0-.818 1.34l2.189 8.872c.07.289.251.532.508.686.256.154.553.2.84.13l1.413-.35zm5.645 4.381a6.894 6.894 0 0 1-3.414-.912l-.105-.063a6.697 6.697 0 0 1-2.481-2.657l-.875.216a1.76 1.76 0 0 1-2.154-1.277l-2.178-8.834a1.763 1.763 0 0 1 1.276-2.155l.189-.046 1.78-8.732c.086-.682.612-1.272 1.306-1.444l17.1-4.219a1.77 1.77 0 0 1 1.778.609l5.676 6.966 5.55-1.37a1.78 1.78 0 0 1 1.346.19c.407.24.694.622.806 1.078l2.181 8.844c.12.484.044.958-.203 1.362-.246.401-.631.683-1.083.795l-1.255.31a6.913 6.913 0 0 1-.955 3.46l-.059.078a6.678 6.678 0 0 1-4.142 3.049 6.81 6.81 0 0 1-5.046-.713l-.112-.077a6.692 6.692 0 0 1-2.49-2.639l-5.649 1.394a6.914 6.914 0 0 1-.955 3.461l-.03.05a6.78 6.78 0 0 1-5.802 3.276zM108.824 122.323a4.572 4.572 0 1 1-9.144 0 4.573 4.573 0 1 1 9.144 0"/>
        <path fill="#E8F0F6" d="M104.252 118.07a4.257 4.257 0 0 0-4.251 4.253 4.257 4.257 0 0 0 4.25 4.252 4.257 4.257 0 0 0 4.252-4.252 4.257 4.257 0 0 0-4.251-4.253m0 9.147a4.9 4.9 0 0 1-4.893-4.894 4.9 4.9 0 0 1 4.893-4.895 4.9 4.9 0 0 1 4.893 4.895 4.9 4.9 0 0 1-4.893 4.894"/>
        <path fill="#D9E6EF" d="M100.598 160.822v-2.859a3.506 3.506 0 0 1 3.505-3.507h23.733l-27.238 7.045v-.679z"/>
        <path fill="#FFF" d="M279.834 219.063l-77.571-19.208a1.026 1.026 0 0 1-.75-1.241l25.525-103.145c.136-.55.692-.885 1.241-.749l77.57 19.208c.55.136.886.691.75 1.242l-25.523 103.144c-.136.55-.693.885-1.242.75"/>
        <path fill="#9DBFD6" d="M279.988 218.44a.382.382 0 0 0 .465-.28l25.523-103.145a.385.385 0 0 0-.28-.465l-77.57-19.207a.382.382 0 0 0-.465.28l-25.524 103.145a.384.384 0 0 0 .28.464l77.571 19.208zm.095 1.296c-.135 0-.269-.016-.403-.05L202.11 200.48a1.658 1.658 0 0 1-1.027-.757 1.658 1.658 0 0 1-.191-1.262l25.524-103.145a1.66 1.66 0 0 1 2.018-1.218l77.571 19.207a1.67 1.67 0 0 1 1.217 2.02l-25.523 103.144a1.658 1.658 0 0 1-.757 1.028c-.263.159-.558.24-.858.24z"/>
        <path fill="#E8F0F6" d="M295.5 140.482l-70.85-17.543a1.665 1.665 0 0 1-1.216-2.015l5.318-21.49a1.663 1.663 0 0 1 2.014-1.216l70.85 17.544a1.663 1.663 0 0 1 1.216 2.015l-5.318 21.49a1.663 1.663 0 0 1-2.014 1.215"/>
        <path fill="#E8F0F6" d="M230.365 98.49c-.242 0-.48.066-.691.194a1.329 1.329 0 0 0-.61.827L223.746 121a1.344 1.344 0 0 0 .98 1.626l70.851 17.544a1.344 1.344 0 0 0 1.625-.981l5.318-21.49c.086-.349.032-.71-.153-1.016a1.333 1.333 0 0 0-.827-.61L230.69 98.53a1.37 1.37 0 0 0-.325-.04m65.534 42.362c-.157 0-.317-.019-.476-.058l-70.85-17.543a1.987 1.987 0 0 1-1.45-2.404l5.318-21.49c.127-.515.447-.949.9-1.223a1.973 1.973 0 0 1 1.503-.227l70.85 17.544c.514.127.949.447 1.223.901.272.454.353.987.226 1.502l-5.318 21.49a1.989 1.989 0 0 1-1.926 1.508"/>
        <g fill="#E8F0F6">
            <path d="M271.608 146.283l-41.001-10.72a1.664 1.664 0 0 1-1.188-2.03l.105-.407a1.663 1.663 0 0 1 2.03-1.189l41.002 10.72a1.664 1.664 0 0 1 1.188 2.031l-.106.406a1.663 1.663 0 0 1-2.03 1.19"/>
            <path d="M271.69 145.973a1.34 1.34 0 0 0 1.638-.96l.106-.406c.09-.347.04-.708-.14-1.018a1.33 1.33 0 0 0-.819-.62l-41.002-10.72a1.339 1.339 0 0 0-1.639.96l-.106.404a1.34 1.34 0 0 0 .96 1.64l41.001 10.72zm.338.685c-.165 0-.333-.02-.5-.064l-41.001-10.72a1.973 1.973 0 0 1-1.212-.918 1.972 1.972 0 0 1-.206-1.505l.105-.406a1.99 1.99 0 0 1 2.422-1.418l41.001 10.72c.513.134.942.46 1.21.918.268.457.342.992.208 1.504l-.106.406a1.989 1.989 0 0 1-1.92 1.483z"/>
        </g>
        <g fill="#E8F0F6">
            <path d="M276.942 156.198l-48.419-12.66a1.665 1.665 0 0 1-1.189-2.03l.107-.406a1.663 1.663 0 0 1 2.03-1.189l48.418 12.66a1.664 1.664 0 0 1 1.189 2.03l-.106.406a1.663 1.663 0 0 1-2.03 1.19"/>
            <path d="M277.023 155.888a1.34 1.34 0 0 0 1.639-.96l.106-.405a1.339 1.339 0 0 0-.96-1.64l-48.418-12.659a1.336 1.336 0 0 0-1.018.14c-.31.182-.53.472-.62.819l-.107.407c-.187.716.243 1.45.959 1.638l48.419 12.66zm.339.685c-.165 0-.333-.02-.5-.064l-48.42-12.66a1.988 1.988 0 0 1-1.418-2.422l.107-.406a1.97 1.97 0 0 1 .916-1.21 1.968 1.968 0 0 1 1.504-.208l48.419 12.66c.513.134.943.46 1.21.917.268.457.342.992.208 1.504l-.106.407a1.989 1.989 0 0 1-1.92 1.482z"/>
        </g>
        <g fill="#E8F0F6">
            <path d="M262.119 160.844l-35.68-9.33a1.664 1.664 0 0 1-1.188-2.03l.106-.406a1.663 1.663 0 0 1 2.03-1.189l35.68 9.329a1.665 1.665 0 0 1 1.188 2.03l-.106.407a1.662 1.662 0 0 1-2.03 1.189"/>
            <path d="M262.2 160.533c.348.092.708.041 1.018-.14.31-.182.53-.472.62-.82l.107-.406a1.345 1.345 0 0 0-.96-1.638l-35.68-9.33a1.346 1.346 0 0 0-1.638.96l-.106.406c-.09.348-.04.709.14 1.018.181.31.472.53.819.621l35.68 9.329zm.343.686c-.169 0-.337-.021-.505-.065l-35.68-9.329a1.986 1.986 0 0 1-1.417-2.422l.106-.406a1.988 1.988 0 0 1 2.42-1.418l35.68 9.328a1.988 1.988 0 0 1 1.419 2.422l-.107.407a1.982 1.982 0 0 1-1.916 1.483z"/>
        </g>
        <g fill="#E8F0F6">
            <path d="M282.369 174.659l-58.014-15.169a1.664 1.664 0 0 1-1.189-2.03l.106-.406a1.664 1.664 0 0 1 2.03-1.19l58.014 15.17a1.664 1.664 0 0 1 1.188 2.03l-.105.406a1.663 1.663 0 0 1-2.03 1.189"/>
            <path d="M282.45 174.348c.72.19 1.451-.243 1.639-.96l.105-.405a1.34 1.34 0 0 0-.959-1.639l-58.014-15.168a1.343 1.343 0 0 0-1.638.96l-.106.405a1.338 1.338 0 0 0 .96 1.639l58.013 15.168zm.339.686c-.165 0-.334-.02-.501-.065L224.274 159.8a1.97 1.97 0 0 1-1.21-.916 1.971 1.971 0 0 1-.208-1.505l.106-.406a1.988 1.988 0 0 1 2.421-1.419l58.014 15.17c.513.133.943.459 1.21.916.268.458.342.992.208 1.505l-.106.406a1.99 1.99 0 0 1-1.92 1.483z"/>
        </g>
        <g fill="#E8F0F6">
            <path d="M236.739 171.249l-14.468-3.783a1.663 1.663 0 0 1-1.188-2.03l.106-.406a1.663 1.663 0 0 1 2.03-1.19l14.467 3.783a1.664 1.664 0 0 1 1.188 2.03l-.106.406a1.663 1.663 0 0 1-2.03 1.19"/>
            <path d="M236.82 170.938a1.341 1.341 0 0 0 1.638-.96l.106-.405a1.344 1.344 0 0 0-.96-1.639l-14.466-3.783a1.331 1.331 0 0 0-1.019.14c-.31.182-.53.473-.62.82l-.106.406a1.344 1.344 0 0 0 .96 1.638l14.466 3.783zm.338.686c-.165 0-.333-.02-.5-.064l-14.468-3.783a1.987 1.987 0 0 1-1.418-2.423l.106-.405c.134-.513.46-.943.917-1.211a1.97 1.97 0 0 1 1.504-.208l14.468 3.783a1.987 1.987 0 0 1 1.418 2.422l-.106.406a1.989 1.989 0 0 1-1.92 1.483z"/>
        </g>
        <g fill="#E8F0F6">
            <path d="M269.024 188.21l-48.836-12.769a1.663 1.663 0 0 1-1.19-2.03l.106-.406a1.663 1.663 0 0 1 2.03-1.188l48.837 12.769a1.664 1.664 0 0 1 1.189 2.03l-.107.406a1.663 1.663 0 0 1-2.03 1.189"/>
            <path d="M269.104 187.9c.347.091.709.041 1.019-.14.309-.181.53-.472.62-.82l.107-.406a1.345 1.345 0 0 0-.96-1.638l-48.837-12.769a1.345 1.345 0 0 0-1.639.96l-.106.406a1.339 1.339 0 0 0 .96 1.638l48.836 12.77zm.343.686c-.168 0-.338-.02-.504-.064l-48.836-12.77a1.972 1.972 0 0 1-1.212-.917 1.972 1.972 0 0 1-.207-1.505l.106-.405a1.988 1.988 0 0 1 2.42-1.42l48.838 12.77a1.987 1.987 0 0 1 1.418 2.422l-.106.407a1.98 1.98 0 0 1-1.917 1.483z"/>
        </g>
        <g fill="#E8F0F6">
            <path d="M248.929 191.478l-30.826-8.06a1.665 1.665 0 0 1-1.19-2.03l.107-.407a1.663 1.663 0 0 1 2.03-1.189l30.826 8.06a1.663 1.663 0 0 1 1.189 2.031l-.106.406a1.663 1.663 0 0 1-2.03 1.189"/>
            <path d="M249.01 191.167a1.341 1.341 0 0 0 1.639-.96l.106-.405c.09-.348.04-.71-.14-1.019a1.332 1.332 0 0 0-.82-.62l-30.825-8.06a1.339 1.339 0 0 0-1.639.96l-.106.406c-.187.716.243 1.45.959 1.638l30.826 8.06zm.339.685c-.165 0-.333-.02-.5-.064l-30.827-8.06a1.988 1.988 0 0 1-1.418-2.422l.107-.406a1.97 1.97 0 0 1 .916-1.21c.458-.269.99-.341 1.505-.208l30.825 8.06c.513.134.943.46 1.21.917.268.457.342.992.208 1.505l-.106.406a1.99 1.99 0 0 1-1.92 1.482z"/>
        </g>
        <g fill="#E8F0F6">
            <path d="M257.02 202.114l-41.002-10.72a1.664 1.664 0 0 1-1.187-2.031l.105-.406a1.664 1.664 0 0 1 2.03-1.19l41.002 10.722a1.663 1.663 0 0 1 1.188 2.03l-.106.406a1.663 1.663 0 0 1-2.03 1.189"/>
            <path d="M257.101 201.803a1.34 1.34 0 0 0 1.64-.96l.105-.405c.09-.347.04-.709-.14-1.018a1.332 1.332 0 0 0-.82-.62l-41-10.721a1.346 1.346 0 0 0-1.64.96l-.106.406c-.187.715.244 1.45.96 1.638l41.001 10.72zm.34.686c-.166 0-.334-.02-.501-.064l-41.002-10.72a1.986 1.986 0 0 1-1.417-2.423l.105-.406a1.987 1.987 0 0 1 2.42-1.419l41.002 10.721c.513.135.943.46 1.211.918.268.457.342.991.208 1.504l-.106.406a1.99 1.99 0 0 1-1.92 1.483z"/>
        </g>
        <path fill="#9DBFD6" d="M12.192 207.04H7.06v-5.136a.642.642 0 1 0-1.284 0v5.136H.642a.642.642 0 1 0 0 1.284h5.133v5.135a.642.642 0 1 0 1.284 0v-5.135h5.133a.642.642 0 1 0 0-1.284M52.174 89.097zm.124.073v9.447l7.727-4.867-7.727-4.58zm-.082 10.157a.56.56 0 0 1-.56-.56v-9.742a.56.56 0 0 1 .845-.48l7.968 4.723a.557.557 0 0 1 .012.954l-7.967 5.019a.558.558 0 0 1-.298.086zM308.43 155.91v9.447l7.726-4.866-7.726-4.58zm-.083 10.156a.56.56 0 0 1-.559-.56v-9.74a.561.561 0 0 1 .844-.482l7.968 4.723c.169.1.271.277.274.474a.553.553 0 0 1-.26.48l-7.969 5.02a.566.566 0 0 1-.298.085zM156.013 102.408a4.257 4.257 0 0 0-4.25 4.253 4.257 4.257 0 0 0 4.25 4.253 4.257 4.257 0 0 0 4.252-4.253 4.257 4.257 0 0 0-4.252-4.253m0 9.148a4.9 4.9 0 0 1-4.893-4.895 4.9 4.9 0 0 1 4.893-4.894 4.9 4.9 0 0 1 4.893 4.894 4.9 4.9 0 0 1-4.893 4.895M264.862 229.828c-2.211 0-4.01 1.8-4.01 4.011 0 2.212 1.799 4.012 4.01 4.012s4.01-1.8 4.01-4.012c0-2.212-1.799-4.011-4.01-4.011m0 8.665a4.658 4.658 0 0 1-4.652-4.654 4.658 4.658 0 0 1 4.652-4.653 4.658 4.658 0 0 1 4.652 4.653 4.658 4.658 0 0 1-4.652 4.654"/>
        <path fill="#FFF" d="M145.987 49.733c0 13.826-11.205 25.035-25.026 25.035-13.822 0-25.027-11.209-25.027-25.035S107.14 24.7 120.961 24.7c13.821 0 25.026 11.208 25.026 25.034"/>
        <path fill="#9DBFD6" d="M120.96 25.02c-13.622 0-24.705 11.086-24.705 24.713s11.083 24.714 24.706 24.714c13.622 0 24.705-11.087 24.705-24.714 0-13.627-11.083-24.713-24.705-24.713m0 50.069c-13.977 0-25.348-11.375-25.348-25.356 0-13.98 11.371-25.355 25.348-25.355 13.976 0 25.347 11.375 25.347 25.355 0 13.981-11.371 25.356-25.347 25.356"/>
        <path fill="#FFF" d="M227.184 77.838l-48.506 3.272a1.51 1.51 0 0 1-1.608-1.406l-1.908-28.306a1.51 1.51 0 0 1 1.405-1.609l48.505-3.272a1.51 1.51 0 0 1 1.608 1.405l1.908 28.307a1.51 1.51 0 0 1-1.404 1.609"/>
        <path fill="#9DBFD6" d="M225.174 46.835c-.026 0-.053 0-.08.002l-48.506 3.273a1.19 1.19 0 0 0-1.106 1.266l1.909 28.306c.02.318.164.608.403.816.24.21.539.314.863.291l48.506-3.272a1.19 1.19 0 0 0 1.105-1.267l-1.908-28.306a1.192 1.192 0 0 0-1.186-1.11m-46.6 34.6c-.443 0-.865-.158-1.202-.452a1.82 1.82 0 0 1-.622-1.256l-1.909-28.306a1.834 1.834 0 0 1 1.704-1.951l48.506-3.272A1.842 1.842 0 0 1 227 47.9l1.907 28.306a1.833 1.833 0 0 1-1.702 1.95L178.7 81.43a2.052 2.052 0 0 1-.125.004M257.322 65.499h-5.134v-5.136a.642.642 0 1 0-1.283 0V65.5h-5.134a.642.642 0 1 0 0 1.283h5.134v5.136a.642.642 0 1 0 1.283 0v-5.136h5.134a.642.642 0 1 0 0-1.283M84.063 14.146h-5.134V9.01a.642.642 0 1 0-1.283 0v5.135h-5.134a.642.642 0 1 0 0 1.284h5.134v5.135a.642.642 0 1 0 1.283 0V15.43h5.134a.642.642 0 1 0 0-1.284"/>
        <path fill="#E8F0F6" d="M58.415 161.093l63.023-14.828M58.635 162.03l-.44-1.874 63.022-14.829.442 1.875z"/>
        <path fill="#FFF" d="M289.303 209.56c0 7.415-6.01 13.427-13.424 13.427s-13.424-6.012-13.424-13.428c0-7.416 6.01-13.428 13.424-13.428s13.424 6.012 13.424 13.428"/>
        <path fill="#9DBFD6" d="M275.88 196.773c-7.049 0-12.783 5.736-12.783 12.786s5.734 12.786 12.782 12.786 12.782-5.736 12.782-12.786-5.734-12.786-12.782-12.786m0 26.856c-7.755 0-14.065-6.312-14.065-14.07s6.31-14.07 14.065-14.07c7.756 0 14.066 6.312 14.066 14.07s-6.31 14.07-14.066 14.07"/>
        <path fill="#FFF" d="M270.442 210.912l4.489 2.82 6.385-8.347"/>
        <path fill="#9DBFD6" d="M274.93 215.017c-.234 0-.47-.065-.681-.197l-4.49-2.821a1.284 1.284 0 0 1 1.365-2.174l3.499 2.198 5.674-7.418a1.284 1.284 0 0 1 2.038 1.56l-6.385 8.348a1.28 1.28 0 0 1-1.02.504"/>
        <g>
            <path fill="#53A5B8" d="M137.788 67.694H117.83a.157.157 0 0 1 0-.313h19.958a.156.156 0 1 1 0 .313M102.06 44.198h-6.583a.156.156 0 1 1 0-.313h6.582a.156.156 0 1 1 0 .313M108.327 44.198h-3.134a.156.156 0 1 1 0-.313h3.134c.087 0 .157.07.157.157 0 .086-.07.156-.157.156"/>
            <g transform="translate(110.403 62.453)">
                <mask id="d" fill="#fff">
                    <use xlink:href="#c"/>
                </mask>
                <path fill="#FFF" d="M4.278.365l-4.12 13.93 10.594 2.747 2.55-7.26-2.55-.588 1.373-5.886z" mask="url(#d)"/>
            </g>
            <g transform="translate(109.761 62.453)">
                <mask id="f" fill="#fff">
                    <use xlink:href="#e"/>
                </mask>
                <path fill="#53A5B8" d="M.997 14.184l10.297 2.67 2.445-6.958-2.534-.584 1.378-5.906L5.023.571.996 14.184zm10.497 3.047L.604 14.406 4.818.16l8.133 3.05-1.369 5.868 2.568.592-2.656 7.562z" mask="url(#f)"/>
            </g>
            <path fill="#CBE7EF" d="M113.676 66.217c1.408 1.373 4.057 3.537 7.66 4.657l1.192-5.113-7.847-2.943-1.005 3.4z"/>
            <path fill="#FFF" d="M108.404 49.868v5.1l1.177 3.14s4.708 9.811 15.498 9.811 10.397-14.52 10.397-19.425c0-4.905-1.962-7.063-1.962-7.063l-15.498-2.355-7.455 5.886-2.157 4.906z"/>
            <path fill="#53A5B8" d="M108.56 54.94l1.167 3.114c.041.084 4.789 9.708 15.352 9.708 2.504 0 4.578-.806 6.164-2.396 4.106-4.118 4.086-12.393 4.077-16.37v-.502c0-4.43-1.628-6.6-1.887-6.917l-15.373-2.336-7.371 5.82-2.129 4.84v5.04zm16.519 13.136c-10.764 0-15.593-9.8-15.64-9.9l-1.192-3.207.013-5.164 2.174-4.941 7.538-5.953 15.621 2.373.038.041c.081.09 2.002 2.26 2.002 7.17v.5c.01 4.02.03 12.382-4.168 16.592-1.648 1.652-3.797 2.489-6.386 2.489z"/>
            <path fill="#CBE7EF" d="M113.03 54.5c.39 1.54 0 2.969-.873 3.19-.874.22-1.897-.848-2.288-2.387-.39-1.54 0-2.968.873-3.19.873-.221 1.897.848 2.288 2.387"/>
            <path fill="#53A5B8" d="M132.533 56.244c0 .705-.395 1.276-.883 1.276-.487 0-.882-.571-.882-1.276 0-.704.395-1.275.882-1.275.488 0 .883.571.883 1.275M121.547 54.871c0 .704-.394 1.275-.882 1.275s-.883-.57-.883-1.275c0-.704.395-1.275.883-1.275s.882.57.882 1.275"/>
            <path fill="#FFF" d="M118.212 52.026s2.747-.98 4.316-.392"/>
            <path fill="#53A5B8" d="M118.265 52.174l-.105-.296c.114-.04 2.818-.993 4.424-.391l-.11.293c-1.5-.562-4.182.384-4.21.394"/>
            <path fill="#FFF" d="M130.376 52.418s2.942-.196 4.12 1.57"/>
            <path fill="#53A5B8" d="M134.365 54.075c-1.112-1.67-3.95-1.502-3.98-1.5l-.02-.313c.125-.008 3.047-.181 4.26 1.639l-.26.174z"/>
            <path fill="#FFF" d="M121.155 60.07s3.139 4.121 7.848 1.178"/>
            <path fill="#53A5B8" d="M125.657 62.458c-2.836 0-4.603-2.261-4.626-2.292l.249-.19c.125.163 3.109 3.97 7.639 1.14l.166.264c-1.259.788-2.412 1.078-3.428 1.078"/>
            <path fill="#FFF" d="M109.58 58.108s-3.727-4.905-3.727-11.576c0-6.67 4.513-7.26 4.513-7.26s-1.177-.392-1.962 0c0 0 1.177-5.298 9.22-4.316 0 0-1.177-1.962-3.532-1.962 0 0 4.709-1.178 8.828.98 0 0-.588-1.961-2.157-2.158 0 0 6.081.785 8.632 2.747 0 0-.392-1.57-1.766-2.747 0 0 7.259 1.57 7.062 7.849 0 0 3.728 2.943.785 8.83 0 0-.588-3.73-2.158-5.102 0 0-3.531 2.747-6.474 2.747s-7.455-7.849-10.79-4.71c-2.334 2.198-1.304 5.261-.476 6.901.34.673.123 1.494-.513 1.899l-.003.002a1.476 1.476 0 0 0-.63 1.65c.13.456.249.968.249 1.321l-.98.981s-1.265-2.529-2.961-3.545a.973.973 0 0 0-1.404.471c-.451 1.146-.935 3.459.245 6.998"/>
            <path fill="#53A5B8" d="M109.264 38.94c.593 0 1.118.173 1.15.184l.643.214-.672.09c-.178.023-4.375.659-4.375 7.104 0 4.936 2.082 8.931 3.12 10.617-.808-3.072-.329-5.108.061-6.096a1.131 1.131 0 0 1 1.629-.548c1.461.874 2.586 2.8 2.92 3.418l.783-.783c-.01-.28-.094-.699-.243-1.215a1.642 1.642 0 0 1 .697-1.825c.57-.363.767-1.092.461-1.698-.844-1.672-1.901-4.817.51-7.085 2.122-2 4.69.231 6.956 2.2 1.46 1.268 2.839 2.466 3.94 2.466 2.854 0 6.343-2.687 6.378-2.714l.102-.08.098.086c1.27 1.111 1.903 3.653 2.12 4.717 2.467-5.42-.913-8.176-.948-8.204l-.062-.05.003-.078c.156-5.027-4.644-6.99-6.35-7.526 1.031 1.11 1.347 2.333 1.362 2.391l.108.437-.356-.274c-1.811-1.394-5.489-2.194-7.377-2.528.805.655 1.13 1.709 1.149 1.77l.107.357-.33-.174c-2.889-1.513-6.104-1.357-7.702-1.145 1.712.44 2.57 1.837 2.612 1.907l.165.276-.318-.04c-6.803-.83-8.586 2.818-8.963 3.905.204-.055.417-.075.622-.075zm.764 20.017l-.573-.754c-.037-.049-3.759-5.024-3.759-11.671 0-3.505 1.256-5.333 2.31-6.25a5.276 5.276 0 0 1 1.693-.996c-.375-.051-.854-.06-1.225.127l-.294.147.07-.322c.012-.053 1.269-5.268 9.04-4.477-.419-.524-1.494-1.61-3.198-1.61h-1.272l1.235-.31c.045-.012 4.536-1.099 8.571.812-.246-.547-.826-1.529-1.85-1.677l-.033-.004.04-.31.024.002c.456.06 5.624.775 8.283 2.494-.215-.539-.684-1.468-1.563-2.223l-.47-.403.605.131c.074.016 7.326 1.658 7.188 7.932.48.43 3.52 3.462.766 8.97l-.218.436-.076-.482c-.006-.036-.574-3.537-2.013-4.922-.622.465-3.753 2.7-6.464 2.7-1.22 0-2.642-1.236-4.147-2.544-2.27-1.972-4.619-4.014-6.536-2.208-2.262 2.13-1.249 5.121-.444 6.716.379.75.135 1.654-.569 2.101a1.327 1.327 0 0 0-.568 1.476c.171.593.257 1.053.257 1.365v.065l-1.18 1.181-.098-.195c-.012-.025-1.264-2.5-2.9-3.48a.822.822 0 0 0-.687-.072.806.806 0 0 0-.49.466c-.416 1.052-.934 3.347.246 6.891l.299.898z"/>
            <g transform="translate(107.194 70.797)">
                <mask id="h" fill="#fff">
                    <use xlink:href="#g"/>
                </mask>
                <path fill="#FFF" d="M4.74.653l7.848 3.336L14.746.457s7.258-.196 11.182 4.12c0 0-2.158 14.716-2.354 16.874-.196 2.159-1.373 8.241-1.962 13.146-.588 4.905 2.354 13.342.98 18.836H-1.34s-.588-4.905 1.766-9.614c2.354-4.709 1.57-12.165-1.177-17.855C-3.5 20.274-6.05 11.837-6.05 8.894c0-2.943-1.374-5.101-1.374-5.101S-4.283.457 4.741.653" mask="url(#h)"/>
            </g>
            <g transform="translate(106.552 70.797)">
                <mask id="j" fill="#fff">
                    <use xlink:href="#i"/>
                </mask>
                <path fill="#53A5B8" d="M-.557 53.277h23.668c.722-3.048.144-6.962-.416-10.748-.441-2.977-.856-5.787-.597-7.95.318-2.645.796-5.575 1.219-8.16.35-2.142.652-3.992.742-4.981.188-2.06 2.18-15.679 2.345-16.81C22.828.76 16.434.613 15.504.613h-.029l-2.182 3.572L5.349.81C-2.669.64-6.024 3.316-6.58 3.82c.281.483 1.331 2.46 1.331 5.074 0 3.003 2.665 11.583 5.28 17.002C2.974 31.991 3.457 39.39 1.208 43.89-.88 48.065-.627 52.451-.557 53.277zm23.914.313H-.838l-.016-.138c-.007-.05-.568-5.006 1.78-9.703C3.137 39.33 2.65 32.045-.25 26.033-2.932 20.479-5.564 11.99-5.564 8.894c0-2.864-1.335-4.996-1.349-5.017l-.065-.103.083-.089c.13-.138 3.28-3.392 12.28-3.188l.06.012 7.722 3.282L15.298.303 15.383.3c.02 0 1.86-.044 4.156.446 2.126.451 5.092 1.466 7.147 3.726l.05.055-.01.073c-.022.147-2.16 14.737-2.354 16.866-.092 1.001-.394 2.856-.746 5.004-.422 2.582-.9 5.507-1.217 8.146-.254 2.122.158 4.912.595 7.867.573 3.866 1.164 7.864.383 10.988l-.03.119z" mask="url(#j)"/>
            </g>
            <g transform="translate(107.836 70.797)">
                <mask id="l" fill="#fff">
                    <use xlink:href="#k"/>
                </mask>
                <path fill="#FFF" d="M14.104.457l-2.158 3.532L4.099.653C2.703.623 1.449.678.324.791l12.21 5.16L16.277.582C14.975.434 14.104.457 14.104.457" mask="url(#l)"/>
            </g>
            <g transform="translate(107.194 70.797)">
                <mask id="n" fill="#fff">
                    <use xlink:href="#m"/>
                </mask>
                <path fill="#53A5B8" d="M1.606.891L13.12 5.757 16.638.71a18.26 18.26 0 0 0-1.804-.098L12.65 4.186 4.708.81A31.605 31.605 0 0 0 1.606.89zm11.626 5.254L.34.695l.61-.06C2.146.515 3.421.467 4.744.497l.058.012 7.723 3.283 2.132-3.49.084-.001c.037-.001.898-.022 2.195.125l.26.03-3.964 5.689z" mask="url(#n)"/>
            </g>
            <path fill="#CBE7EF" d="M105.795 122.269c-.032 1.203.059 1.962.059 1.962h23.933c.155-.62.252-1.277.308-1.962h-24.3z"/>
            <path fill="#53A5B8" d="M105.995 124.074h23.669c.118-.503.204-1.045.26-1.648H105.95c-.016.807.024 1.394.046 1.648zm23.914.313h-24.195l-.016-.138c-.005-.031-.091-.784-.06-1.984l.005-.153h24.623l-.014.17c-.06.737-.163 1.388-.313 1.986l-.03.12z"/>
        </g>
        <g>
            <path fill="#E8F0F6" d="M182.534 72.492a.71.71 0 0 1-.682.726.706.706 0 0 1-.728-.676c-.051-1.278.436-2.257 1.132-2.99.971-1.003 2.364-1.484 3.2-1.592a.74.74 0 0 0 .418-.202.501.501 0 0 0 .116-.234c-.682-.518-1.021-1.255-1.296-1.879-.143-.304-.263-.56-.326-.632l-.015-.005-.006-.004h-.005v-.005c-.305-.258-.74-.75-.979-1.321-.242-.566-.323-1.197-.016-1.79a5.432 5.432 0 0 1-.333-1.696 6.812 6.812 0 0 1 .26-2.26l.027-.062c.3-1.007.852-1.759 1.571-2.282.768-.571 1.738-.855 2.837-.924.41-.02.968-.053 1.518.03.629.084 1.228.3 1.608.79.738-.094 1.398.29 1.926.869.65.694 1.136 1.725 1.256 2.34.098.457.117.936.067 1.448a8.443 8.443 0 0 1-.21 1.248c.404.584.38 1.255.184 1.853a3.742 3.742 0 0 1-.875 1.4l-.01.01-.01.01v.005c-.071.073-.17.343-.284.652-.219.638-.485 1.384-1.108 1.944.02.094.073.182.145.254a.739.739 0 0 0 .433.168c.837.041 2.264.41 3.312 1.333.747.67 1.316 1.613 1.366 2.896a.699.699 0 1 1-1.399.05c-.034-.838-.408-1.448-.901-1.888-.774-.685-1.826-.963-2.447-.983a2.134 2.134 0 0 1-1.324-.548c-.395-.354-.99-1.725-.302-2.197.482-.315.717-.959.9-1.501.176-.482.32-.898.628-1.2v.01l.005-.01a2.24 2.24 0 0 0 .533-.842c.09-.264.099-.524-.079-.697h.006c-.194-.197-.273-.564-.198-.822a6.73 6.73 0 0 0 .234-1.27c.03-.376.026-.726-.047-1.068-.077-.417-.426-1.132-.902-1.644-.252-.275-.52-.47-.738-.42a1.26 1.26 0 0 1-.709-.072 1.315 1.315 0 0 1-.506-.4l-.047-.049c-.112-.154-.386-.244-.703-.286-.417-.058-.886-.03-1.236-.006-.835.043-1.553.242-2.101.654-.477.344-.837.853-1.054 1.557l-.018.055a5.389 5.389 0 0 0-.21 1.78c.032.533.137 1.044.33 1.466.085.132.121.3.092.456-.056.462-.425.497-.182 1.087.144.324.407.63.587.788l.022.028h.01c.316.273.497.67.7 1.127.242.525.527 1.159 1.03 1.444a.68.68 0 0 1 .395.605c.024.598-.056 1.121-.488 1.588-.316.353-.778.582-1.285.652-.613.07-1.635.43-2.346 1.174a2.576 2.576 0 0 0-.743 1.96M197.356 60.635l26.445-1.503M197.355 61.28a.644.644 0 0 1-.036-1.289l26.445-1.503a.645.645 0 0 1 .074 1.287l-26.445 1.504h-.038M197.141 56.864l26.445-1.503M197.14 57.509a.644.644 0 0 1-.035-1.288l26.445-1.503a.645.645 0 0 1 .073 1.287l-26.445 1.503h-.037M197.89 64.547l26.123-1.396M197.89 65.192a.645.645 0 0 1-.035-1.288l26.123-1.397a.651.651 0 0 1 .68.61.646.646 0 0 1-.61.678l-26.123 1.396h-.035M203.499 68.2l20.088-1.14M203.498 68.845a.644.644 0 0 1-.036-1.288l20.088-1.141a.645.645 0 0 1 .073 1.287l-20.088 1.142h-.037M201.637 72.09l22.164-1.26M201.636 72.734a.644.644 0 0 1-.036-1.288l22.165-1.26a.644.644 0 1 1 .073 1.287l-22.164 1.26h-.038"/>
            <path fill="#D9E6EF" d="M213.112 154.53h13.07a4.42 4.42 0 0 1 4.424 4.417v48.606h-3.152v-48.14a1.953 1.953 0 0 0-1.955-1.952h-13.066l.679-2.932z"/>
            <path fill="#FFF" d="M105.931 311.067H224.49a2.963 2.963 0 0 0 2.965-2.962V160.07a2.963 2.963 0 0 0-2.965-2.962H105.931a2.963 2.963 0 0 0-2.965 2.962v148.035a2.963 2.963 0 0 0 2.965 2.962"/>
            <path fill="#9DBFD6" d="M105.931 157.753a2.321 2.321 0 0 0-2.32 2.317v148.035a2.321 2.321 0 0 0 2.32 2.318H224.49a2.32 2.32 0 0 0 2.32-2.318V160.07a2.32 2.32 0 0 0-2.32-2.317H105.931zM224.49 311.712H105.931a3.612 3.612 0 0 1-3.61-3.607V160.07a3.612 3.612 0 0 1 3.61-3.606H224.49c1.99 0 3.61 1.618 3.61 3.606v148.035a3.612 3.612 0 0 1-3.61 3.607z"/>
            <path fill="#E8F0F6" d="M182.58 199.799H113.88a3.065 3.065 0 0 1-3.066-3.063 3.065 3.065 0 0 1 3.066-3.064h68.699a3.065 3.065 0 0 1 3.066 3.064 3.065 3.065 0 0 1-3.066 3.063"/>
            <path fill="#E8F0F6" d="M113.881 193.994a2.746 2.746 0 0 0-2.743 2.741 2.746 2.746 0 0 0 2.743 2.742h68.699a2.746 2.746 0 0 0 2.744-2.742c0-1.51-1.232-2.74-2.744-2.74H113.88zm68.699 6.127H113.88a3.391 3.391 0 0 1-3.388-3.386 3.39 3.39 0 0 1 3.388-3.385h68.699a3.39 3.39 0 0 1 3.389 3.385 3.391 3.391 0 0 1-3.39 3.386zM195.132 213.276h-81.25a3.064 3.064 0 0 1-3.067-3.063 3.064 3.064 0 0 1 3.066-3.063h81.25a3.065 3.065 0 0 1 3.067 3.063 3.065 3.065 0 0 1-3.066 3.063"/>
            <path fill="#E8F0F6" d="M113.881 207.472a2.746 2.746 0 0 0-2.743 2.74c0 1.512 1.23 2.742 2.743 2.742h81.251a2.746 2.746 0 0 0 2.744-2.741c0-1.511-1.231-2.741-2.744-2.741h-81.25zm81.251 6.126h-81.25a3.39 3.39 0 0 1-3.39-3.385 3.39 3.39 0 0 1 3.39-3.385h81.25a3.39 3.39 0 0 1 3.389 3.385 3.39 3.39 0 0 1-3.389 3.385zM173.575 226.754H113.88a3.064 3.064 0 0 1-3.066-3.063 3.064 3.064 0 0 1 3.066-3.063h59.694a3.065 3.065 0 0 1 3.066 3.063 3.065 3.065 0 0 1-3.066 3.063"/>
            <path fill="#E8F0F6" d="M113.881 220.95a2.746 2.746 0 0 0-2.743 2.74c0 1.512 1.23 2.741 2.743 2.741h59.694a2.745 2.745 0 0 0 2.744-2.74c0-1.511-1.23-2.741-2.744-2.741H113.88zm59.694 6.125H113.88a3.39 3.39 0 0 1-3.388-3.385 3.39 3.39 0 0 1 3.388-3.385h59.694a3.39 3.39 0 0 1 3.389 3.385 3.39 3.39 0 0 1-3.39 3.385zM211.368 240.231h-97.487a3.064 3.064 0 1 1 0-6.126h97.487a3.064 3.064 0 0 1 3.067 3.063 3.064 3.064 0 0 1-3.067 3.063"/>
            <path fill="#E8F0F6" d="M113.881 234.427a2.746 2.746 0 0 0-2.743 2.741c0 1.511 1.23 2.74 2.743 2.74h97.488a2.745 2.745 0 0 0 2.743-2.74c0-1.51-1.23-2.74-2.743-2.74H113.88zm97.488 6.126H113.88a3.39 3.39 0 0 1-3.388-3.385 3.39 3.39 0 0 1 3.388-3.385h97.488a3.39 3.39 0 0 1 3.388 3.385 3.39 3.39 0 0 1-3.388 3.385zM137.678 253.709H113.88a3.064 3.064 0 1 1 0-6.126h23.797a3.065 3.065 0 0 1 3.066 3.063 3.065 3.065 0 0 1-3.066 3.063"/>
            <path fill="#E8F0F6" d="M113.881 247.905a2.745 2.745 0 0 0-2.743 2.74c0 1.512 1.23 2.741 2.743 2.741h23.797a2.745 2.745 0 0 0 2.743-2.74c0-1.512-1.23-2.741-2.743-2.741h-23.797zm23.797 6.126h-23.797a3.39 3.39 0 0 1-3.388-3.385 3.39 3.39 0 0 1 3.388-3.385h23.797a3.39 3.39 0 0 1 3.388 3.385 3.39 3.39 0 0 1-3.388 3.385zM195.839 267.186h-81.957a3.064 3.064 0 0 1-3.067-3.063 3.064 3.064 0 0 1 3.067-3.062h81.957a3.064 3.064 0 0 1 3.066 3.062 3.064 3.064 0 0 1-3.066 3.063"/>
            <path fill="#E8F0F6" d="M113.881 261.383a2.745 2.745 0 0 0-2.743 2.74c0 1.512 1.23 2.741 2.743 2.741h81.957a2.745 2.745 0 0 0 2.744-2.74c0-1.512-1.23-2.741-2.744-2.741h-81.957zm81.957 6.125h-81.957a3.39 3.39 0 0 1-3.388-3.385 3.39 3.39 0 0 1 3.388-3.385h81.957a3.39 3.39 0 0 1 3.39 3.385 3.39 3.39 0 0 1-3.39 3.385zM165.36 280.664H113.88a3.064 3.064 0 1 1 0-6.126h51.479a3.064 3.064 0 0 1 3.066 3.063 3.065 3.065 0 0 1-3.066 3.063"/>
            <path fill="#E8F0F6" d="M113.881 274.86a2.745 2.745 0 0 0-2.743 2.74c0 1.512 1.23 2.742 2.743 2.742h51.48a2.745 2.745 0 0 0 2.742-2.741c0-1.512-1.23-2.74-2.743-2.74h-51.479zm51.48 6.126h-51.48a3.39 3.39 0 0 1-3.388-3.385 3.39 3.39 0 0 1 3.388-3.385h51.48a3.39 3.39 0 0 1 3.387 3.385 3.39 3.39 0 0 1-3.388 3.385zM182.58 294.142H113.88a3.065 3.065 0 0 1-3.066-3.063 3.065 3.065 0 0 1 3.066-3.064h68.699a3.065 3.065 0 0 1 3.066 3.064 3.065 3.065 0 0 1-3.066 3.063"/>
            <path fill="#E8F0F6" d="M113.881 288.337a2.746 2.746 0 0 0-2.743 2.741 2.746 2.746 0 0 0 2.743 2.742h68.699a2.746 2.746 0 0 0 2.744-2.742c0-1.51-1.232-2.74-2.744-2.74H113.88zm68.699 6.127H113.88a3.391 3.391 0 0 1-3.388-3.386 3.39 3.39 0 0 1 3.388-3.385h68.699a3.39 3.39 0 0 1 3.389 3.385 3.391 3.391 0 0 1-3.39 3.386zM216.553 175.299H113.739c-1.615 0-2.925 1.371-2.925 3.063v4.896c0 1.692 1.31 3.063 2.925 3.063h76.138c0-5.92 4.58-10.719 10.232-10.719 5.651 0 10.232 4.799 10.232 10.719h6.212c1.615 0 2.924-1.371 2.924-3.063v-4.896c0-1.692-1.309-3.063-2.924-3.063"/>
            <path fill="#E8F0F6" d="M113.74 175.621c-1.436 0-2.603 1.23-2.603 2.74v4.897c0 1.511 1.167 2.74 2.602 2.74h75.82c.138-5.004 3.475-9.185 7.943-10.377H113.74zM210.66 186h5.893c1.435 0 2.602-1.23 2.602-2.741v-4.896c0-1.511-1.167-2.74-2.602-2.74h-13.837c4.468 1.191 7.805 5.372 7.943 10.377zm5.893.644h-6.534v-.322c0-5.732-4.446-10.396-9.91-10.396s-9.91 4.664-9.91 10.396v.322h-76.46c-1.79 0-3.247-1.519-3.247-3.385v-4.896c0-1.867 1.457-3.385 3.247-3.385h102.814c1.79 0 3.247 1.518 3.247 3.385v4.896c0 1.866-1.457 3.385-3.247 3.385z"/>
            <path fill="#9DBFD6" d="M203.44 190.742a5.507 5.507 0 0 1-3.883 1.606 5.543 5.543 0 0 1-3.9-1.606c-.995-1.002-1.624-2.37-1.624-3.887 0-1.515.629-2.901 1.625-3.896a5.516 5.516 0 0 1 3.9-1.613 5.48 5.48 0 0 1 3.883 1.613 5.509 5.509 0 0 1 1.615 3.896 5.5 5.5 0 0 1-1.615 3.887zm.98-8.761a6.916 6.916 0 0 0-4.863-2.013 6.87 6.87 0 0 0-4.863 2.013 6.807 6.807 0 0 0-2.031 4.874c0 1.89.767 3.619 2.03 4.858a6.81 6.81 0 0 0 4.864 2.02 6.855 6.855 0 0 0 4.864-2.02 6.879 6.879 0 0 0 2.022-4.858 6.904 6.904 0 0 0-2.022-4.874zm2.065 16.113l-.009-.009a.704.704 0 0 0-.849.49l-.963 3.65-2.415-4.14a11.497 11.497 0 0 0 5.475-3.072l.04-.04 2.367 4.091-3.646-.97zm-6.928-1.997a9.253 9.253 0 0 1-9.269-9.242 9.232 9.232 0 0 1 2.717-6.545 9.183 9.183 0 0 1 6.552-2.713 9.15 9.15 0 0 1 6.544 2.713 9.205 9.205 0 0 1 2.725 6.545 9.226 9.226 0 0 1-2.725 6.536 9.244 9.244 0 0 1-6.544 2.706zm-5.108 6.128l-.979-3.65a.707.707 0 0 0-.848-.49l-.017.009-3.623.97 2.351-4.091.049.04a11.47 11.47 0 0 0 5.466 3.072l-2.399 4.14zm17.673-2.46l-3.403-5.885a11.485 11.485 0 0 0 2.391-7.025c0-3.194-1.297-6.08-3.386-8.166a11.495 11.495 0 0 0-8.167-3.39c-3.19 0-6.087 1.295-8.175 3.39a11.479 11.479 0 0 0-3.394 8.166c0 2.64.889 5.07 2.399 7.025l-3.411 5.884a.71.71 0 0 0-.098.572.692.692 0 0 0 .84.496l4.61-1.23 1.224 4.58c.04.17.147.326.327.424.317.18.741.081.93-.253l3.475-6.031c.416.058.841.073 1.273.073.424 0 .848-.015 1.248-.073l3.5 6.03c.18.335.604.433.93.254a.745.745 0 0 0 .318-.424l1.233-4.58 4.594 1.23c.366.09.758-.122.832-.496.073-.197.016-.4-.09-.572z"/>
        </g>
    </g>
</svg>
