<?xml version="1.0" encoding="UTF-8"?>
<svg width="251px" height="130px" viewBox="0 0 251 130" version="1.1" xmlns="http://www.w3.org/2000/svg" xmlns:xlink="http://www.w3.org/1999/xlink">
    <!-- Generator: sketchtool 55.2 (78181) - https://sketchapp.com -->
    <title>B60EA7BA-8FCD-4379-9085-35498CE54753</title>
    <desc>Created with sketchtool.</desc>
    <g id="Sitio---Listado-de-pólizas" stroke="none" stroke-width="1" fill="none" fill-rule="evenodd">
        <g id="Listado-de-pólizas_desperfectos" transform="translate(-702.000000, -186.000000)" fill-rule="nonzero">
            <g id="no-disponible" transform="translate(702.000000, 186.000000)">
                <path d="M80,1.52459016 C80,0.846994536 80.5135135,0.169398907 81.1981982,0 C81.7117117,0 82.2252252,0.169398907 82.5675676,0.677595628 L98.8288288,28.9672131 C99.1711712,29.6448087 99,30.4918033 98.3153153,30.8306011 C98.3153153,30.8306011 98.3153153,30.8306011 98.3153153,30.8306011 C97.6306306,31.1693989 96.7747748,31 96.4324324,30.3224044 L80.1711712,2.03278689 C80.1711712,1.86338798 80,1.69398907 80,1.52459016 Z" id="Path" fill="#10253A"></path>
                <path d="M54,16.4056289 C54,16.0707112 54,15.5683347 54.3373023,15.4008759 C54.8432557,14.8984993 55.6865114,14.8984993 56.1924648,15.233417 L84.5258562,40.6871609 C85.0318096,41.1895374 85.2004607,42.0268316 84.6945073,42.5292082 C84.1885539,43.0315847 83.3452982,43.1990435 82.8393448,42.696667 C82.8393448,42.696667 82.8393448,42.696667 82.8393448,42.696667 L54.3373023,17.0754643 C54.1686511,16.9080054 54,16.5730877 54,16.4056289 Z" id="Path" fill="#10253A"></path>
                <ellipse id="Oval" fill="#2F6FCE" cx="74.5" cy="93" rx="4.5" ry="6"></ellipse>
                <g id="Group" transform="translate(36.000000, 62.000000)">
                    <polyline id="Path" fill="#FFFFFF" points="36.9034483 16.665 45.6758621 16.5 45.6758621 30.69 20.5172414 30.69 20.5172414 16.5 39.8827586 16.5 33.0965517 0.825 1.15172414 0.825 7.44137931 16.5"></polyline>
                    <path d="M20.5172414,31.515 C20.3517241,31.515 20.0206897,31.35 19.8551724,31.35 C19.6896552,31.35 19.6896552,31.02 19.6896552,30.69 L19.6896552,16.5 C19.6896552,16.005 20.0206897,15.675 20.5172414,15.675 L38.7241379,15.675 L32.6,1.65 L2.47586207,1.65 L8.26896552,16.17 C8.43448276,16.665 8.26896552,16.995 7.77241379,17.325 C7.27586207,17.49 6.94482759,17.325 6.77931034,16.83 L0.489655172,1.155 C0.324137931,0.825 0.489655172,0.66 0.489655172,0.33 C0.655172414,0.165 0.820689655,0 1.15172414,0 L33.0965517,0 C33.0965517,0 33.0965517,0 33.0965517,0 C33.4275862,0 33.7586207,0.165 33.9241379,0.495 L40.5448276,15.84 L45.6758621,15.84 C46.0068966,15.84 46.1724138,16.005 46.337931,16.005 C46.5034483,16.17 46.5034483,16.335 46.5034483,16.665 L46.5034483,30.855 C46.5034483,31.35 46.1724138,31.68 45.6758621,31.68 L20.5172414,31.515 L20.5172414,31.515 Z M21.3448276,17.325 L21.3448276,29.865 L44.6827586,29.865 L44.6827586,17.325 L36.9034483,17.325 C36.9034483,17.325 36.737931,17.325 36.737931,17.325 L21.3448276,17.325 Z" id="Shape" fill="#2F6FCE"></path>
                </g>
                <ellipse id="Oval" fill="#2F6FCE" cx="20.5" cy="93" rx="4.5" ry="6"></ellipse>
                <ellipse id="Oval" fill="#2F6FCE" cx="62.5" cy="86" rx="1.5" ry="2"></ellipse>
                <path d="M82,88 L69.1195652,88 C67.9782609,88 67,87.0769231 67,86 L67,86 C67,84.9230769 67.9782609,84 69.1195652,84 L82,84" id="Path" fill="#2F6FCE"></path>
                <ellipse id="Oval" fill="#2F6FCE" cx="148.5" cy="93" rx="4.5" ry="6"></ellipse>
                <ellipse id="Oval" fill="#FFFFFF" cx="128.5" cy="93" rx="4.5" ry="6"></ellipse>
                <path d="M150.019305,75.1339286 L153.837838,75.1339286 C154.501931,75.1339286 155,75.6294643 155,76.2901786 L155,89.5044643 L129.764479,90 L130.926641,75.9598214 L150.019305,75.1339286 L144.042471,53 L112.498069,53.1651786 L112,53.1651786 L117.976834,76.6205357 L150.019305,75.1339286 Z" id="Path" fill="#F06958"></path>
                <ellipse id="Oval" fill="#FFFFFF" cx="137" cy="83.5" rx="2" ry="2.5"></ellipse>
                <path d="M143,86 C142.4,86 142,85.6666667 142,85.1666667 L142,81.8333333 C142,81.3333333 142.4,81 143,81 C143.6,81 144,81.3333333 144,81.8333333 L144,85.1666667 C144,85.6666667 143.6,86 143,86 Z" id="Path" fill="#FFFFFF"></path>
                <path d="M146,86 C145.4,86 145,85.6666667 145,85.1666667 L145,81.8333333 C145,81.3333333 145.4,81 146,81 C146.6,81 147,81.3333333 147,81.8333333 L147,85.1666667 C147,85.6666667 146.6,86 146,86 Z" id="Path" fill="#FFFFFF"></path>
                <path d="M150,86 C149.4,86 149,85.6666667 149,85.1666667 L149,81.8333333 C149,81.3333333 149.4,81 150,81 C150.6,81 151,81.3333333 151,81.8333333 L151,85.1666667 C151,85.6666667 150.6,86 150,86 Z" id="Path" fill="#FFFFFF"></path>
                <path d="M153,86 C152.4,86 152,85.6666667 152,85.1666667 L152,81.8333333 C152,81.3333333 152.4,81 153,81 C153.6,81 154,81.3333333 154,81.8333333 L154,85.1666667 C154,85.6666667 153.4,86 153,86 Z" id="Path" fill="#FFFFFF"></path>
                <g id="Group" transform="translate(82.000000, 52.000000)" fill="#F06958">
                    <polygon id="Path" points="1.17419355 41.1807692 1.17419355 37.8730769 1.17419355 23.4846154 1.50967742 1.48846154 30.5290323 1.65384615 36.5677419 23.65 49.6516129 23.65 48.3096774 41.8423077"></polygon>
                    <path d="M49.1483871,42.6692308 L0.335483871,42.0076923 L0.335483871,23.4846154 L0.670967742,0.661538462 L31.2,0.826923077 L37.2387097,22.8230769 L50.6580645,22.8230769 L49.1483871,42.6692308 Z M2.01290323,40.3538462 L47.6387097,41.0153846 L48.8129032,24.4769231 L35.8967742,24.4769231 L29.8580645,2.48076923 L2.18064516,2.31538462 L2.01290323,23.4846154 L2.01290323,40.3538462 L2.01290323,40.3538462 Z" id="Shape"></path>
                </g>
                <ellipse id="Oval" fill="#FFFFFF" cx="90" cy="90.5" rx="5" ry="6.5"></ellipse>
                <ellipse id="Oval" fill="#FFFFFF" cx="117.5" cy="91" rx="4.5" ry="6"></ellipse>
                <g id="Group" transform="translate(0.000000, 62.000000)">
                    <polygon id="Path" fill="#FFFFFF" points="1.82285714 30.69 0.828571429 30.69 0.828571429 16.5 5.8 16.5 11.9314286 0.825 36.9542857 0.825 43.2514286 16.5 56.3428571 16.5 56.3428571 30.69"></polygon>
                    <path d="M56.3428571,31.515 L0.828571429,31.515 C0.331428571,31.515 0,31.185 0,30.69 L0,16.5 C0,16.335 0.165714286,16.005 0.165714286,15.84 C0.331428571,15.675 0.497142857,15.675 0.828571429,15.675 C0.828571429,15.675 0.828571429,15.675 0.828571429,15.675 L5.30285714,15.675 L11.1028571,0.66 C11.2685714,0.165 11.6,0 11.9314286,0 L36.9542857,0 C37.2857143,0 37.6171429,0.165 37.7828571,0.495 L43.9142857,15.675 L56.5085714,15.51 C56.6742857,15.51 57.0057143,15.675 57.1714286,15.675 C57.3371429,15.84 57.3371429,16.005 57.3371429,16.335 L57.3371429,30.69 C57.1714286,31.185 56.84,31.515 56.3428571,31.515 Z M1.65714286,29.865 L55.5142857,29.865 L55.5142857,17.16 L43.2514286,17.325 C43.2514286,17.325 43.2514286,17.325 43.2514286,17.325 C42.92,17.325 42.5885714,17.16 42.4228571,16.83 L36.4571429,1.65 L12.5942857,1.65 L6.62857143,16.83 C6.46285714,17.16 6.13142857,17.325 5.8,17.325 C5.8,17.325 5.8,17.325 5.8,17.325 L1.65714286,17.325 L1.65714286,29.865 Z" id="Shape" fill="#2F6FCE"></path>
                </g>
                <ellipse id="Oval" fill="#2F6FCE" cx="11.5" cy="93" rx="4.5" ry="6"></ellipse>
                <ellipse id="Oval" fill="#2F6FCE" cx="41.5" cy="93" rx="4.5" ry="6"></ellipse>
                <ellipse id="Oval" fill="#2F6FCE" cx="86.5" cy="124" rx="4.5" ry="6"></ellipse>
                <ellipse id="Oval" fill="#2F6FCE" cx="114.5" cy="124" rx="4.5" ry="6"></ellipse>
                <g id="Group" transform="translate(47.000000, 92.000000)">
                    <polygon id="Path" fill="#FFFFFF" points="5.83333333 31.68 1.5 31.68 1.5 17.325 11.5 17.325 17.6666667 1.815 44 1.815 50.3333333 17.49 63.5 17.325 63.5 31.68"></polygon>
                    <path d="M63.5,32.505 L63.5,32.505 L1.66666667,32.505 C1.16666667,32.505 0.833333333,32.175 0.833333333,31.68 L0.833333333,17.325 C0.833333333,17.16 1,16.83 1,16.665 C1.16666667,16.5 1.33333333,16.5 1.66666667,16.5 C1.66666667,16.5 1.66666667,16.5 1.66666667,16.5 L11.1666667,16.5 L17,1.485 C17.1666667,1.155 17.5,0.99 17.8333333,0.99 L44.1666667,0.99 C44.5,0.99 44.8333333,1.155 45,1.485 L51.1666667,16.665 L63.6666667,16.5 C63.8333333,16.5 64.1666667,16.665 64.3333333,16.665 C64.5,16.665 64.5,16.995 64.5,17.325 L64.5,31.68 C64.5,31.845 64.3333333,32.175 64.3333333,32.34 C64.3333333,32.505 63.6666667,32.505 63.5,32.505 Z M2.33333333,30.855 L5.66666667,30.855 L5.66666667,30.855 L62.5,30.855 L62.5,18.15 L50.3333333,18.315 C49.8333333,18.315 49.6666667,18.15 49.5,17.82 L43.3333333,2.64 L18.3333333,2.64 L12.5,17.655 C12.3333333,17.985 12,18.15 11.6666667,18.15 C11.6666667,18.15 11.6666667,18.15 11.6666667,18.15 L2.5,18.15 L2.5,30.855 L2.33333333,30.855 Z" id="Shape" fill="#2F6FCE"></path>
                </g>
                <g id="Group" transform="translate(89.000000, 92.000000)">
                    <polygon id="Path" fill="#FFFFFF" points="38.984 17.49 38.648 31.68 21.008 31.68 21.008 17.49 38.984 17.49 32.264 1.65 1.352 1.815 7.736 17.49"></polygon>
                    <path d="M21.008,32.505 C20.84,32.505 20.504,32.34 20.336,32.34 C20.168,32.175 20.168,32.01 20.168,31.68 L20.168,18.315 L7.904,18.315 C7.568,18.315 7.232,18.15 7.064,17.82 L0.68,2.145 C0.512,1.815 0.68,1.65 0.68,1.32 C0.848,1.155 1.016,0.99 1.352,0.99 L32.096,0.825 C32.096,0.825 32.096,0.825 32.096,0.825 C32.432,0.825 32.768,0.99 32.936,1.32 L39.824,17.16 C39.824,17.325 39.824,17.325 39.824,17.49 L39.488,31.68 C39.488,32.175 39.152,32.505 38.648,32.505 L21.008,32.505 C21.008,32.505 21.008,32.505 21.008,32.505 Z M21.848,18.315 L21.848,30.855 L37.808,30.855 L38.144,18.315 L21.848,18.315 Z M8.408,16.665 L37.808,16.665 L31.76,2.475 L2.864,2.64 L8.408,16.665 Z" id="Shape" fill="#2F6FCE"></path>
                </g>
                <ellipse id="Oval" fill="#2F6FCE" cx="53.5" cy="123" rx="4.5" ry="6"></ellipse>
                <ellipse id="Oval" fill="#2F6FCE" cx="95.5" cy="124" rx="4.5" ry="6"></ellipse>
                <ellipse id="Oval" fill="#2F6FCE" cx="115.5" cy="117" rx="1.5" ry="2"></ellipse>
                <path d="M128,119 L121.294118,119 C120.058824,119 119,118.076923 119,117 L119,117 C119,115.923077 120.058824,115 121.294118,115 L128,115" id="Path" fill="#2F6FCE"></path>
                <path d="M158,45 C152.936508,45 152.412698,50 152.412698,50 C152.412698,47.2580645 150.142857,45 147.174603,45 C147.174603,45 147,45 147,45 C152.063492,45 152.587302,40 152.587302,40 C152.587302,42.7419355 154.857143,45 157.825397,45 C157.825397,45 158,45 158,45 Z" id="Path" fill="#A0D0FF"></path>
                <path d="M152.833333,51 L152.833333,51 C152.333333,51 152,50.6637478 152,50.1593695 C152,50.1593695 152,50.1593695 152,50.1593695 C152.166667,47.8056042 150.333333,45.7880911 148,45.7880911 C147.833333,45.7880911 147.833333,45.7880911 147.666667,45.7880911 C147.166667,45.619965 147,45.1155867 147,44.7793345 C147,44.4430823 147.333333,44.2749562 147.666667,44.1068301 C151.666667,44.1068301 152,39.7355517 152,39.5674256 C152.166667,39.0630473 152.666667,38.8949212 153.166667,39.0630473 C153.5,39.2311734 153.666667,39.3992995 153.666667,39.7355517 L153.666667,39.7355517 C153.5,42.089317 155.333333,44.1068301 157.666667,44.1068301 C157.833333,44.1068301 157.833333,44.1068301 158,44.1068301 C158.5,43.938704 159,44.2749562 159,44.7793345 C159,45.2837128 158.833333,45.7880911 158.333333,45.7880911 C158.166667,45.7880911 158,45.7880911 157.833333,45.7880911 C153.833333,45.7880911 153.5,50.1593695 153.5,50.3274956 C153.5,50.6637478 153.166667,51 152.833333,51 Z M150.833333,44.7793345 C151.666667,45.2837128 152.333333,46.1243433 152.833333,46.9649737 C153.333333,46.1243433 154,45.4518389 154.833333,44.7793345 C154,44.2749562 153.166667,43.4343257 152.833333,42.5936953 C152.333333,43.4343257 151.666667,44.2749562 150.833333,44.7793345 L150.833333,44.7793345 Z" id="Shape" fill="#A0D0FF"></path>
                <path d="M134,30 C127.651163,30 127,37 127,37 C127,37 127,30 120,30 C126.348837,30 127,23 127,23 C127,23 127.162791,30 134,30 Z" id="Path" fill="#A0D0FF"></path>
                <path d="M126.833333,38 L126.833333,38 C126.333333,38 126,37.6709854 126,37.1774636 C126,37.1774636 126,37.1774636 126,37.1774636 C126.166667,33.8873178 123.5,31.090694 120.166667,30.9261867 C120,30.9261867 120,30.9261867 119.833333,30.9261867 C119.333333,30.9261867 119,30.5971721 119,30.1036502 C119,29.6101284 119.333333,29.2811138 119.833333,29.2811138 C125.5,29.2811138 126,23.3588515 126.166667,23.0298369 C126,22.5363151 126.333333,22.0427932 126.833333,22.0427932 C127.333333,21.8782859 127.833333,22.2073005 127.833333,22.7008224 C127.833333,22.8653296 127.833333,23.0298369 127.833333,23.1943442 L127.833333,23.1943442 C127.666667,26.4844899 130.333333,29.2811138 133.833333,29.4456211 C134,29.4456211 134,29.4456211 134.166667,29.4456211 C134.666667,29.4456211 135,29.7746357 135,30.2681575 C135,30.7616794 134.666667,31.090694 134.166667,31.090694 C128.5,31.090694 128,37.0129563 127.833333,37.3419709 C127.5,37.5064781 127.166667,37.8354927 126.833333,38 Z M123.5,29.939143 C125,30.7616794 126.166667,31.9132304 126.833333,33.5583033 C127.5,32.0777377 128.666667,30.9261867 130,30.1036502 C128.5,29.2811138 127.166667,28.1295628 126.5,26.4844899 C125.833333,27.9650555 124.833333,29.1166065 123.5,29.939143 L123.5,29.939143 Z" id="Shape" fill="#A0D0FF"></path>
                <ellipse id="Oval" fill="#2F6FCE" cx="193.5" cy="93" rx="4.5" ry="6"></ellipse>
                <ellipse id="Oval" fill="#2F6FCE" cx="221.5" cy="93" rx="4.5" ry="6"></ellipse>
                <g id="Group" transform="translate(155.000000, 61.000000)">
                    <polygon id="Path" fill="#FFFFFF" points="5 31.01 0.666666667 31.01 0.666666667 16.655 10.6666667 16.655 16.8333333 1.145 43.1666667 1.145 49.5 16.82 62.6666667 16.655 62.6666667 31.01"></polygon>
                    <path d="M62.6666667,31.835 L62.6666667,31.835 L0.833333333,31.835 C0.333333333,31.835 0,31.505 0,31.01 L0,16.655 C0,16.49 0.166666667,16.16 0.166666667,15.995 C0.333333333,15.83 0.5,15.665 0.833333333,15.83 L10.3333333,15.83 L16.1666667,0.815 C16.3333333,0.485 16.6666667,0.32 17,0.32 L43.3333333,0.32 C43.6666667,0.32 44,0.485 44.1666667,0.815 L50.3333333,15.995 L62.8333333,15.83 C63,15.83 63.3333333,15.995 63.5,15.995 C63.6666667,16.16 63.6666667,16.325 63.6666667,16.655 L63.6666667,31.01 C63.6666667,31.175 63.5,31.505 63.5,31.67 C63.5,31.835 62.8333333,31.835 62.6666667,31.835 Z M1.5,30.185 L4.83333333,30.185 L4.83333333,30.185 L61.6666667,30.185 L61.6666667,17.48 L49.5,17.645 C49.1666667,17.645 48.8333333,17.48 48.6666667,17.15 L42.5,1.97 L17.3333333,1.97 L11.5,16.985 C11.3333333,17.315 11,17.48 10.6666667,17.48 C10.6666667,17.48 10.6666667,17.48 10.6666667,17.48 L1.5,17.48 L1.5,30.185 Z" id="Shape" fill="#2F6FCE"></path>
                </g>
                <g id="Group" transform="translate(197.000000, 61.000000)">
                    <polygon id="Path" fill="#FFFFFF" points="38 16.82 52.6666667 16.82 53 31.01 20.3333333 31.01 20.3333333 16.82 38 16.82 31.3333333 0.98 0.833333333 1.145 7.16666667 16.82"></polygon>
                    <path d="M20.3333333,31.835 C20.1666667,31.835 19.8333333,31.67 19.6666667,31.67 C19.5,31.67 19.5,31.34 19.5,31.01 L19.5,17.645 L7.33333333,17.645 C7,17.645 6.66666667,17.48 6.5,17.15 L0.166666667,1.475 C-8.13238366e-15,1.145 0.166666667,0.98 0.166666667,0.65 C0.333333333,0.485 0.5,0.32 0.833333333,0.32 L31.3333333,0.155 C31.3333333,0.155 31.3333333,0.155 31.3333333,0.155 C31.6666667,0.155 32,0.32 32.1666667,0.65 L38.6666667,15.995 L52.8333333,15.995 C53.3333333,15.995 53.6666667,16.325 53.6666667,16.82 L53.8333333,31.01 C53.8333333,31.175 53.8333333,31.505 53.6666667,31.67 C53.5,31.835 53.3333333,31.835 53,31.835 L20.3333333,31.835 C20.3333333,31.835 20.3333333,31.835 20.3333333,31.835 Z M21.1666667,17.645 L21.1666667,30.185 L52.1666667,30.185 L52,17.645 L21.1666667,17.645 Z M7.83333333,15.995 L36.8333333,15.995 L30.8333333,1.805 L2.16666667,1.97 L7.83333333,15.995 Z" id="Shape" fill="#2F6FCE"></path>
                </g>
                <ellipse id="Oval" fill="#2F6FCE" cx="166.5" cy="93" rx="4.5" ry="6"></ellipse>
                <ellipse id="Oval" fill="#2F6FCE" cx="202.5" cy="93" rx="4.5" ry="6"></ellipse>
                <ellipse id="Oval" fill="#2F6FCE" cx="222.5" cy="86" rx="1.5" ry="2"></ellipse>
                <ellipse id="Oval" fill="#2F6FCE" cx="244.5" cy="86" rx="1.5" ry="2"></ellipse>
                <path d="M227.811744,84 L239.209002,84 C240.18591,84 241,84.9090909 241,86 L241,86 C241,87.0909091 240.18591,88 239.209002,88 L227.811744,88 C226.834836,88 226.020746,87.0909091 226.020746,86 L226.020746,86 C225.857928,84.9090909 226.672018,84 227.811744,84 Z" id="Path" fill="#2F6FCE"></path>
                <ellipse id="Oval" fill="#2F6FCE" cx="193.5" cy="124" rx="4.5" ry="6"></ellipse>
                <ellipse id="Oval" fill="#2F6FCE" cx="174.5" cy="124" rx="4.5" ry="6"></ellipse>
                <g id="Group" transform="translate(125.000000, 86.000000)">
                    <polygon id="Path" fill="#FFFFFF" points="1.490625 37.5 3.3125 37.5 3.3125 23 3.478125 0.833333333 32.13125 0.833333333 38.09375 23.1666667 51.178125 23.1666667 49.853125 38.1666667"></polygon>
                    <path d="M49.853125,39 C49.853125,39 49.853125,39 49.853125,39 L1.490625,38.3333333 C0.99375,38.3333333 0.6625,38 0.6625,37.5 C0.6625,37 0.99375,36.6666667 1.490625,36.6666667 L2.484375,36.6666667 L2.484375,23 L2.815625,0.833333333 C2.815625,0.333333333 3.146875,0 3.64375,0 C3.64375,0 3.64375,0 3.64375,0 L32.296875,0.166666667 C32.628125,0.166666667 32.959375,0.5 33.125,0.833333333 L38.921875,22.5 L51.178125,22.5 C51.178125,22.5 51.178125,22.5 51.178125,22.5 C51.34375,22.5 51.675,22.6666667 51.840625,22.8333333 C52.00625,23 52.00625,23.1666667 52.00625,23.5 L50.68125,38.5 C50.68125,38.6666667 50.184375,39 49.853125,39 Z M4.140625,36.6666667 L49.190625,37.3333333 L50.35,24 L38.09375,24 C38.09375,24 38.09375,24 38.09375,24 C37.7625,24 37.43125,23.6666667 37.265625,23.3333333 L31.46875,1.66666667 L4.30625,1.5 L4.140625,22.8333333 L4.140625,36.6666667 Z" id="Shape" fill="#2F6FCE"></path>
                </g>
                <g id="Group" transform="translate(157.000000, 85.000000)">
                    <polygon id="Path" fill="#FFFFFF" points="38.425 24.1666667 51.509375 24.1666667 51.178125 38.5 18.384375 39.1666667 19.709375 24.1666667 38.425 24.1666667 32.628125 1.66666667 1.159375 1.83333333 6.625 24.1666667"></polygon>
                    <path d="M18.384375,40 C18.21875,40 17.8875,39.8333333 17.721875,39.6666667 C17.55625,39.5 17.55625,39.3333333 17.55625,39 L18.715625,24.8333333 L6.625,25 L6.625,25 C6.29375,25 5.9625,24.6666667 5.796875,24.3333333 L0.33125,2 C0.33125,1.83333333 0.33125,1.5 0.496875,1.33333333 C0.6625,1.16666667 0.828125,1 1.159375,1 L32.628125,0.833333333 C32.628125,0.833333333 32.628125,0.833333333 32.628125,0.833333333 C32.959375,0.833333333 33.290625,1.16666667 33.45625,1.5 L39.0875,23.3333333 L51.509375,23.3333333 C51.675,23.3333333 52.00625,23.5 52.171875,23.6666667 C52.3375,23.8333333 52.3375,24 52.3375,24.3333333 L51.840625,38.6666667 C51.840625,39.1666667 51.509375,39.5 51.0125,39.5 L18.384375,40 C18.384375,40 18.384375,40 18.384375,40 Z M20.371875,25 L19.2125,38.3333333 L50.35,37.6666667 L50.68125,25 L20.371875,25 Z M2.31875,2.66666667 L7.2875,23.3333333 L19.54375,23.3333333 C19.54375,23.3333333 19.709375,23.3333333 19.709375,23.3333333 L37.43125,23.3333333 L31.965625,2.66666667 L2.31875,2.66666667 Z" id="Shape" fill="#2F6FCE"></path>
                </g>
                <ellipse id="Oval" fill="#2F6FCE" cx="140" cy="122.5" rx="5" ry="6.5"></ellipse>
                <ellipse id="Oval" fill="#2F6FCE" cx="162.5" cy="124" rx="4.5" ry="6"></ellipse>
                <ellipse id="Oval" fill="#2F6FCE" cx="183" cy="116.5" rx="2" ry="2.5"></ellipse>
                <ellipse id="Oval" fill="#2F6FCE" cx="203" cy="116.5" rx="2" ry="2.5"></ellipse>
                <path d="M188,119 C187.4,119 187,118.666667 187,118.166667 L187,114.833333 C187,114.333333 187.4,114 188,114 C188.6,114 189,114.333333 189,114.833333 L189,118.166667 C189,118.666667 188.6,119 188,119 Z" id="Path" fill="#2F6FCE"></path>
                <path d="M192,119 C191.4,119 191,118.666667 191,118.166667 L191,114.833333 C191,114.333333 191.4,114 192,114 C192.6,114 193,114.333333 193,114.833333 L193,118.166667 C193,118.666667 192.6,119 192,119 Z" id="Path" fill="#2F6FCE"></path>
                <path d="M196,119 C195.4,119 195,118.666667 195,118.166667 L195,114.833333 C195,114.333333 195.4,114 196,114 C196.6,114 197,114.333333 197,114.833333 L197,118.166667 C197,118.666667 196.4,119 196,119 Z" id="Path" fill="#2F6FCE"></path>
                <path d="M199,119 C198.4,119 198,118.666667 198,118.166667 L198,114.833333 C198,114.333333 198.4,114 199,114 C199.6,114 200,114.333333 200,114.833333 L200,118.166667 C200,118.666667 199.6,119 199,119 Z" id="Path" fill="#2F6FCE"></path>
                <path d="M150.157043,75 L117.787509,75 C117.450326,75 117.113143,74.6716146 116.944552,74.3432292 L111.043856,51.0278675 C110.875264,50.5352894 111.212447,50.2069041 111.718221,50.0427114 C112.223995,49.8785187 112.561178,50.2069041 112.729769,50.6994821 L118.461874,73.3580731 L150.157043,73.3580731 C150.662817,73.3580731 151,73.6864585 151,74.1790366 C151,74.6716146 150.494226,75 150.157043,75 Z" id="Path" fill="#FFFFFF"></path>
            </g>
        </g>
    </g>
</svg>